#include "../include/hUGEDriver.h"
#include <stddef.h>

static const unsigned char order_cnt_battle = 8;

static const unsigned char P0_battle[] = {
    DN(C_4,8,0x000),
    DN(___,0,0x000),
    DN(C_4,8,0x000),
    DN(___,0,0x000),
    DN(C_4,8,0x000),
    DN(___,0,0x000),
    DN(C_4,8,0x000),
    DN(Ds4,8,0x000),
    DN(C_4,8,0x000),
    DN(___,0,0x000),
    DN(C_4,8,0x000),
    DN(___,0,0x000),
    DN(C_4,8,0x000),
    DN(___,0,0x000),
    DN(C_4,8,0x000),
    DN(G_4,8,0x000),
    DN(C_4,8,0x000),
    DN(___,0,0x000),
    DN(C_4,8,0x000),
    DN(___,0,0x000),
    DN(C_4,8,0x000),
    DN(___,0,0x000),
    DN(C_4,8,0x000),
    DN(Ds4,8,0x000),
    DN(D_4,8,0x000),
    DN(___,0,0x000),
    DN(G_3,8,0x000),
    DN(___,0,0x000),
    DN(G_3,8,0x000),
    DN(___,0,0x000),
    DN(G_3,8,0x000),
    DN(___,0,0x000),
    DN(C_4,8,0x000),
    DN(D_4,8,0x000),
    DN(Ds4,8,0x000),
    DN(D_4,8,0x000),
    DN(F_4,8,0x000),
    DN(Ds4,8,0x000),
    DN(D_4,8,0x000),
    DN(Ds4,8,0x000),
    DN(G_4,8,0x000),
    DN(___,0,0x000),
    DN(F_4,8,0x000),
    DN(G_4,8,0x000),
    DN(Gs4,8,0x000),
    DN(G_4,8,0x000),
    DN(As4,8,0x000),
    DN(Gs4,8,0x000),
    DN(G_4,8,0x000),
    DN(___,0,0x000),
    DN(D_4,8,0x000),
    DN(Ds4,8,0x000),
    DN(F_4,8,0x000),
    DN(Ds4,8,0x000),
    DN(Gs4,8,0x000),
    DN(G_4,8,0x000),
    DN(F_4,8,0x000),
    DN(___,0,0x000),
    DN(___,0,0x000),
    DN(___,0,0x000),
    DN(C_4,8,0x000),
    DN(D_4,8,0x000),
    DN(Ds4,8,0x000),
    DN(D_4,8,0x000),
};
static const unsigned char P1_battle[] = {
    DN(C_5,5,0x000),
    DN(___,0,0x000),
    DN(D_5,5,0x000),
    DN(G_5,5,0x000),
    DN(D_5,5,0x000),
    DN(___,0,0x000),
    DN(Ds5,5,0x000),
    DN(As5,5,0x000),
    DN(Ds5,5,0x000),
    DN(___,0,0x000),
    DN(D_5,5,0x000),
    DN(___,0,0x000),
    DN(Ds5,5,0x000),
    DN(___,0,0x000),
    DN(C_5,5,0x000),
    DN(___,0,0x000),
    DN(Ds5,5,0x000),
    DN(___,0,0x000),
    DN(F_5,5,0x000),
    DN(___,0,0x000),
    DN(G_5,5,0x000),
    DN(___,0,0x000),
    DN(Ds5,5,0x000),
    DN(___,0,0x000),
    DN(D_5,5,0x000),
    DN(F_5,5,0x000),
    DN(Ds5,5,0x000),
    DN(D_5,5,0x000),
    DN(F_5,5,0x000),
    DN(Ds5,5,0x000),
    DN(C_5,5,0x000),
    DN(___,0,0x000),
    DN(C_5,5,0x000),
    DN(___,0,0x000),
    DN(D_5,5,0x000),
    DN(G_5,5,0x000),
    DN(D_5,5,0x000),
    DN(___,0,0x000),
    DN(Ds5,5,0x000),
    DN(As5,5,0x000),
    DN(Ds5,5,0x000),
    DN(___,0,0x000),
    DN(D_5,5,0x000),
    DN(___,0,0x000),
    DN(Ds5,5,0x000),
    DN(___,0,0x000),
    DN(C_5,5,0x000),
    DN(___,0,0x000),
    DN(Ds5,5,0x000),
    DN(___,0,0x000),
    DN(F_5,5,0x000),
    DN(___,0,0x000),
    DN(G_5,5,0x000),
    DN(___,0,0x000),
    DN(Ds5,5,0x000),
    DN(___,0,0x000),
    DN(D_5,5,0x000),
    DN(___,0,0x000),
    DN(Ds5,5,0x000),
    DN(___,0,0x000),
    DN(F_5,5,0x000),
    DN(___,0,0x000),
    DN(C_5,5,0x000),
    DN(___,0,0x000),
};
static const unsigned char P2_battle[] = {
    DN(C_6,2,0xC18),
    DN(___,0,0x000),
    DN(Ds6,2,0xC18),
    DN(___,0,0x000),
    DN(C_6,2,0xC18),
    DN(___,0,0x000),
    DN(G_5,2,0xC18),
    DN(___,0,0x000),
    DN(C_6,2,0xC18),
    DN(___,0,0x000),
    DN(D_6,2,0xC18),
    DN(___,0,0x000),
    DN(C_6,2,0xC18),
    DN(___,0,0x000),
    DN(___,0,0x000),
    DN(___,0,0x000),
    DN(C_6,2,0xC09),
    DN(D_6,2,0xC0A),
    DN(Ds6,2,0xC0B),
    DN(D_6,2,0xC0C),
    DN(C_6,2,0xC09),
    DN(___,0,0x000),
    DN(G_5,2,0xC18),
    DN(___,0,0x000),
    DN(C_6,2,0xC18),
    DN(___,0,0x000),
    DN(F_6,2,0xC18),
    DN(___,0,0x000),
    DN(C_6,2,0xC18),
    DN(___,0,0x000),
    DN(___,0,0x000),
    DN(___,0,0x000),
    DN(C_6,2,0xC18),
    DN(___,0,0x000),
    DN(___,0,0x000),
    DN(___,0,0x000),
    DN(C_6,2,0xC18),
    DN(___,0,0x000),
    DN(___,0,0x000),
    DN(___,0,0x000),
    DN(C_6,2,0xC18),
    DN(___,0,0x000),
    DN(D_6,2,0xC18),
    DN(___,0,0x000),
    DN(C_6,2,0xC18),
    DN(___,0,0x000),
    DN(___,0,0x000),
    DN(___,0,0x000),
    DN(C_6,2,0xC18),
    DN(D_6,2,0xC09),
    DN(Ds6,2,0xC0A),
    DN(F_6,2,0xC0B),
    DN(G_6,2,0xC0C),
    DN(___,0,0x000),
    DN(G_5,2,0xC0C),
    DN(___,0,0x000),
    DN(D_6,2,0xC0B),
    DN(___,0,0x000),
    DN(G_6,2,0xC0A),
    DN(___,0,0x000),
    DN(C_6,2,0xC07),
    DN(___,0,0x000),
    DN(C_7,2,0x000),
    DN(___,0,0x000),
};
static const unsigned char P3_battle[] = {
    DN(___,0,0x000),
    DN(___,0,0x000),
    DN(___,0,0x000),
    DN(___,0,0x000),
    DN(___,0,0x000),
    DN(___,0,0x000),
    DN(___,0,0x000),
    DN(___,0,0x000),
    DN(___,0,0x000),
    DN(___,0,0x000),
    DN(___,0,0x000),
    DN(___,0,0x000),
    DN(___,0,0x000),
    DN(___,0,0x000),
    DN(___,0,0x000),
    DN(___,0,0x000),
    DN(___,0,0x000),
    DN(___,0,0x000),
    DN(___,0,0x000),
    DN(___,0,0x000),
    DN(___,0,0x000),
    DN(___,0,0x000),
    DN(___,0,0x000),
    DN(___,0,0x000),
    DN(___,0,0x000),
    DN(___,0,0x000),
    DN(___,0,0x000),
    DN(___,0,0x000),
    DN(___,0,0x000),
    DN(___,0,0x000),
    DN(___,0,0x000),
    DN(___,0,0x000),
    DN(___,0,0x000),
    DN(___,0,0x000),
    DN(___,0,0x000),
    DN(___,0,0x000),
    DN(___,0,0x000),
    DN(___,0,0x000),
    DN(___,0,0x000),
    DN(___,0,0x000),
    DN(___,0,0x000),
    DN(___,0,0x000),
    DN(___,0,0x000),
    DN(___,0,0x000),
    DN(___,0,0x000),
    DN(___,0,0x000),
    DN(___,0,0x000),
    DN(___,0,0x000),
    DN(___,0,0x000),
    DN(___,0,0x000),
    DN(___,0,0x000),
    DN(___,0,0x000),
    DN(___,0,0x000),
    DN(___,0,0x000),
    DN(___,0,0x000),
    DN(___,0,0x000),
    DN(___,0,0x000),
    DN(___,0,0x000),
    DN(___,0,0x000),
    DN(___,0,0x000),
    DN(___,0,0x000),
    DN(___,0,0x000),
    DN(___,0,0x000),
    DN(___,0,0x000),
};
static const unsigned char P4_battle[] = {
    DN(C_5,8,0x000),
    DN(___,0,0x000),
    DN(G_4,8,0x000),
    DN(C_5,8,0x000),
    DN(___,0,0x000),
    DN(D_5,8,0x000),
    DN(C_5,8,0x000),
    DN(B_4,8,0x000),
    DN(C_5,8,0x000),
    DN(___,0,0x000),
    DN(G_4,8,0x000),
    DN(C_5,8,0x000),
    DN(___,0,0x000),
    DN(___,0,0x000),
    DN(Ds5,5,0x000),
    DN(C_5,5,0x000),
    DN(Ds5,5,0x000),
    DN(F_6,5,0x000),
    DN(Ds6,5,0x000),
    DN(D_6,5,0x000),
    DN(F_6,5,0x000),
    DN(G_6,5,0x000),
    DN(F_6,5,0x000),
    DN(D_6,5,0x000),
    DN(C_5,8,0x000),
    DN(___,0,0x000),
    DN(G_4,8,0x000),
    DN(C_5,8,0x000),
    DN(___,0,0x000),
    DN(___,0,0x000),
    DN(F_5,5,0x000),
    DN(G_5,5,0x000),
    DN(Gs5,5,0x000),
    DN(Ds5,5,0x000),
    DN(As5,5,0x000),
    DN(Gs5,5,0x000),
    DN(G_5,5,0x000),
    DN(Gs5,5,0x000),
    DN(G_5,5,0x000),
    DN(F_5,5,0x000),
    DN(G_5,5,0x000),
    DN(C_5,5,0x000),
    DN(Ds5,5,0x000),
    DN(G_5,5,0x000),
    DN(___,0,0x000),
    DN(___,0,0x000),
    DN(C_5,5,0x000),
    DN(___,0,0x000),
    DN(D_5,5,0x000),
    DN(B_4,5,0x000),
    DN(D_5,5,0x000),
    DN(G_5,5,0x000),
    DN(___,0,0x000),
    DN(___,0,0x000),
    DN(B_4,5,0x000),
    DN(___,0,0x000),
    DN(C_5,5,0x000),
    DN(Ds5,5,0x000),
    DN(G_5,5,0x000),
    DN(C_6,5,0x000),
    DN(Ds6,5,0x000),
    DN(___,0,0x000),
    DN(G_6,5,0x000),
    DN(___,0,0x000),
};
static const unsigned char P5_battle[] = {
    DN(Ds6,5,0x000),
    DN(___,0,0x000),
    DN(G_5,5,0x000),
    DN(Ds6,5,0x000),
    DN(___,0,0x000),
    DN(F_6,5,0x000),
    DN(Ds6,5,0x000),
    DN(D_6,5,0x000),
    DN(Ds6,5,0x000),
    DN(___,0,0x000),
    DN(G_5,5,0x000),
    DN(Ds6,5,0x000),
    DN(___,0,0x000),
    DN(___,0,0x000),
    DN(___,0,0x000),
    DN(___,0,0x000),
    DN(D_6,5,0x000),
    DN(___,0,0x000),
    DN(As5,5,0x000),
    DN(___,0,0x000),
    DN(F_6,5,0x000),
    DN(___,0,0x000),
    DN(D_6,5,0x000),
    DN(___,0,0x000),
    DN(Ds6,5,0x000),
    DN(___,0,0x000),
    DN(G_5,5,0x000),
    DN(Ds6,5,0x000),
    DN(___,0,0x000),
    DN(___,0,0x000),
    DN(___,0,0x000),
    DN(___,0,0x000),
    DN(Ds5,5,0x000),
    DN(___,0,0x000),
    DN(As5,5,0x000),
    DN(___,0,0x000),
    DN(D_5,5,0x000),
    DN(___,0,0x000),
    DN(G_5,5,0x000),
    DN(___,0,0x000),
    DN(___,0,0x000),
    DN(___,0,0x000),
    DN(___,0,0x000),
    DN(___,0,0x000),
    DN(___,0,0x000),
    DN(___,0,0x000),
    DN(___,0,0x000),
    DN(___,0,0x000),
    DN(___,0,0x000),
    DN(___,0,0x000),
    DN(___,0,0x000),
    DN(___,0,0x000),
    DN(___,0,0x000),
    DN(___,0,0x000),
    DN(___,0,0x000),
    DN(___,0,0x000),
    DN(___,0,0x000),
    DN(___,0,0x000),
    DN(___,0,0x000),
    DN(___,0,0x000),
    DN(___,0,0x000),
    DN(___,0,0x000),
    DN(___,0,0x000),
    DN(___,0,0x000),
};
static const unsigned char P6_battle[] = {
    DN(Ds6,2,0x000),
    DN(___,0,0x000),
    DN(F_6,2,0x000),
    DN(___,0,0x000),
    DN(C_6,2,0x000),
    DN(___,0,0x000),
    DN(___,0,0x000),
    DN(___,0,0x000),
    DN(Ds6,2,0x000),
    DN(___,0,0x000),
    DN(F_6,2,0x000),
    DN(___,0,0x000),
    DN(C_6,2,0x000),
    DN(___,0,0x000),
    DN(___,0,0x000),
    DN(___,0,0x000),
    DN(F_6,2,0x000),
    DN(___,0,0x000),
    DN(G_6,2,0x000),
    DN(___,0,0x000),
    DN(D_6,2,0x000),
    DN(___,0,0x000),
    DN(___,0,0x000),
    DN(___,0,0x000),
    DN(Ds6,2,0x000),
    DN(___,0,0x000),
    DN(F_6,2,0x000),
    DN(___,0,0x000),
    DN(C_6,2,0x000),
    DN(___,0,0x000),
    DN(___,0,0x000),
    DN(___,0,0x000),
    DN(C_6,2,0x000),
    DN(___,0,0x000),
    DN(C_6,2,0x000),
    DN(___,0,0x000),
    DN(G_6,2,0x000),
    DN(___,0,0x000),
    DN(Gs6,2,0x000),
    DN(___,0,0x000),
    DN(F_6,2,0x000),
    DN(___,0,0x000),
    DN(F_6,2,0x000),
    DN(___,0,0x000),
    DN(D_6,2,0x000),
    DN(___,0,0x000),
    DN(G_5,2,0x000),
    DN(___,0,0x000),
    DN(___,0,0x000),
    DN(___,0,0x000),
    DN(D_6,2,0x000),
    DN(___,0,0x000),
    DN(G_6,2,0x000),
    DN(___,0,0x000),
    DN(B_6,2,0x000),
    DN(___,0,0x000),
    DN(C_6,2,0x000),
    DN(Ds6,2,0x000),
    DN(C_6,2,0x000),
    DN(B_5,2,0x000),
    DN(C_6,2,0x000),
    DN(___,0,0x000),
    DN(___,0,0x000),
    DN(___,0,0x000),
};
static const unsigned char P8_battle[] = {
    DN(Cs4,8,0x000),
    DN(___,0,0x000),
    DN(Cs4,8,0x000),
    DN(___,0,0x000),
    DN(Cs4,8,0x000),
    DN(___,0,0x000),
    DN(Cs4,8,0x000),
    DN(E_4,8,0x000),
    DN(Cs4,8,0x000),
    DN(___,0,0x000),
    DN(Cs4,8,0x000),
    DN(___,0,0x000),
    DN(Cs4,8,0x000),
    DN(___,0,0x000),
    DN(Cs4,8,0x000),
    DN(Gs4,8,0x000),
    DN(Cs4,8,0x000),
    DN(___,0,0x000),
    DN(Cs4,8,0x000),
    DN(___,0,0x000),
    DN(Cs4,8,0x000),
    DN(___,0,0x000),
    DN(Cs4,8,0x000),
    DN(E_4,8,0x000),
    DN(Ds4,8,0x000),
    DN(___,0,0x000),
    DN(Gs3,8,0x000),
    DN(___,0,0x000),
    DN(Gs3,8,0x000),
    DN(___,0,0x000),
    DN(Gs3,8,0x000),
    DN(___,0,0x000),
    DN(Cs4,8,0x000),
    DN(Ds4,8,0x000),
    DN(E_4,8,0x000),
    DN(Ds4,8,0x000),
    DN(Fs4,8,0x000),
    DN(E_4,8,0x000),
    DN(Ds4,8,0x000),
    DN(E_4,8,0x000),
    DN(Gs4,8,0x000),
    DN(___,0,0x000),
    DN(Fs4,8,0x000),
    DN(Gs4,8,0x000),
    DN(A_4,8,0x000),
    DN(Gs4,8,0x000),
    DN(B_4,8,0x000),
    DN(A_4,8,0x000),
    DN(Gs4,8,0x000),
    DN(___,0,0x000),
    DN(Ds4,8,0x000),
    DN(E_4,8,0x000),
    DN(Fs4,8,0x000),
    DN(E_4,8,0x000),
    DN(A_4,8,0x000),
    DN(Gs4,8,0x000),
    DN(Fs4,8,0x000),
    DN(___,0,0x000),
    DN(___,0,0x000),
    DN(___,0,0x000),
    DN(Cs4,8,0x000),
    DN(Ds4,8,0x000),
    DN(E_4,8,0x000),
    DN(Ds4,8,0x000),
};
static const unsigned char P9_battle[] = {
    DN(Cs5,5,0x000),
    DN(___,0,0x000),
    DN(Ds5,5,0x000),
    DN(Gs5,5,0x000),
    DN(Ds5,5,0x000),
    DN(___,0,0x000),
    DN(E_5,5,0x000),
    DN(B_5,5,0x000),
    DN(E_5,5,0x000),
    DN(___,0,0x000),
    DN(Ds5,5,0x000),
    DN(___,0,0x000),
    DN(E_5,5,0x000),
    DN(___,0,0x000),
    DN(Cs5,5,0x000),
    DN(___,0,0x000),
    DN(E_5,5,0x000),
    DN(___,0,0x000),
    DN(Fs5,5,0x000),
    DN(___,0,0x000),
    DN(Gs5,5,0x000),
    DN(___,0,0x000),
    DN(E_5,5,0x000),
    DN(___,0,0x000),
    DN(Ds5,5,0x000),
    DN(Fs5,5,0x000),
    DN(E_5,5,0x000),
    DN(Ds5,5,0x000),
    DN(Fs5,5,0x000),
    DN(E_5,5,0x000),
    DN(Cs5,5,0x000),
    DN(___,0,0x000),
    DN(Cs5,5,0x000),
    DN(___,0,0x000),
    DN(Ds5,5,0x000),
    DN(Gs5,5,0x000),
    DN(Ds5,5,0x000),
    DN(___,0,0x000),
    DN(E_5,5,0x000),
    DN(B_5,5,0x000),
    DN(E_5,5,0x000),
    DN(___,0,0x000),
    DN(Ds5,5,0x000),
    DN(___,0,0x000),
    DN(E_5,5,0x000),
    DN(___,0,0x000),
    DN(Cs5,5,0x000),
    DN(___,0,0x000),
    DN(E_5,5,0x000),
    DN(___,0,0x000),
    DN(Fs5,5,0x000),
    DN(___,0,0x000),
    DN(Gs5,5,0x000),
    DN(___,0,0x000),
    DN(E_5,5,0x000),
    DN(___,0,0x000),
    DN(Ds5,5,0x000),
    DN(___,0,0x000),
    DN(E_5,5,0x000),
    DN(___,0,0x000),
    DN(Fs5,5,0x000),
    DN(___,0,0x000),
    DN(Cs5,5,0x000),
    DN(___,0,0x000),
};
static const unsigned char P10_battle[] = {
    DN(Cs6,2,0xC18),
    DN(___,0,0x000),
    DN(E_6,2,0xC18),
    DN(___,0,0x000),
    DN(Cs6,2,0xC18),
    DN(___,0,0x000),
    DN(Gs5,2,0xC18),
    DN(___,0,0x000),
    DN(Cs6,2,0xC18),
    DN(___,0,0x000),
    DN(Ds6,2,0xC18),
    DN(___,0,0x000),
    DN(Cs6,2,0xC18),
    DN(___,0,0x000),
    DN(___,0,0x000),
    DN(___,0,0x000),
    DN(Cs6,2,0xC09),
    DN(Ds6,2,0xC0A),
    DN(E_6,2,0xC0B),
    DN(Ds6,2,0xC0C),
    DN(Cs6,2,0xC09),
    DN(___,0,0x000),
    DN(Gs5,2,0xC18),
    DN(___,0,0x000),
    DN(Cs6,2,0xC18),
    DN(___,0,0x000),
    DN(Fs6,2,0xC18),
    DN(___,0,0x000),
    DN(Cs6,2,0xC18),
    DN(___,0,0x000),
    DN(___,0,0x000),
    DN(___,0,0x000),
    DN(Cs6,2,0xC18),
    DN(___,0,0x000),
    DN(___,0,0x000),
    DN(___,0,0x000),
    DN(Cs6,2,0xC18),
    DN(___,0,0x000),
    DN(___,0,0x000),
    DN(___,0,0x000),
    DN(Cs6,2,0xC18),
    DN(___,0,0x000),
    DN(Ds6,2,0xC18),
    DN(___,0,0x000),
    DN(Cs6,2,0xC18),
    DN(___,0,0x000),
    DN(___,0,0x000),
    DN(___,0,0x000),
    DN(Cs6,2,0xC18),
    DN(Ds6,2,0xC09),
    DN(E_6,2,0xC0A),
    DN(Fs6,2,0xC0B),
    DN(Gs6,2,0xC0C),
    DN(___,0,0x000),
    DN(Gs5,2,0xC0C),
    DN(___,0,0x000),
    DN(Ds6,2,0xC0B),
    DN(___,0,0x000),
    DN(Gs6,2,0xC0A),
    DN(___,0,0x000),
    DN(Cs6,2,0xC07),
    DN(___,0,0x000),
    DN(Cs7,2,0x000),
    DN(___,0,0x000),
};
static const unsigned char P12_battle[] = {
    DN(Cs5,8,0x000),
    DN(___,0,0x000),
    DN(Gs4,8,0x000),
    DN(Cs5,8,0x000),
    DN(___,0,0x000),
    DN(Ds5,8,0x000),
    DN(Cs5,8,0x000),
    DN(C_5,8,0x000),
    DN(Cs5,8,0x000),
    DN(___,0,0x000),
    DN(Gs4,8,0x000),
    DN(Cs5,8,0x000),
    DN(___,0,0x000),
    DN(___,0,0x000),
    DN(E_5,5,0x000),
    DN(Cs5,5,0x000),
    DN(E_5,5,0x000),
    DN(Fs6,5,0x000),
    DN(E_6,5,0x000),
    DN(Ds6,5,0x000),
    DN(Fs6,5,0x000),
    DN(Gs6,5,0x000),
    DN(Fs6,5,0x000),
    DN(Ds6,5,0x000),
    DN(Cs5,8,0x000),
    DN(___,0,0x000),
    DN(Gs4,8,0x000),
    DN(Cs5,8,0x000),
    DN(___,0,0x000),
    DN(___,0,0x000),
    DN(Fs5,5,0x000),
    DN(Gs5,5,0x000),
    DN(A_5,5,0x000),
    DN(E_5,5,0x000),
    DN(B_5,5,0x000),
    DN(A_5,5,0x000),
    DN(Gs5,5,0x000),
    DN(A_5,5,0x000),
    DN(Gs5,5,0x000),
    DN(Fs5,5,0x000),
    DN(Gs5,5,0x000),
    DN(Cs5,5,0x000),
    DN(E_5,5,0x000),
    DN(Gs5,5,0x000),
    DN(___,0,0x000),
    DN(___,0,0x000),
    DN(Cs5,5,0x000),
    DN(___,0,0x000),
    DN(Ds5,5,0x000),
    DN(C_5,5,0x000),
    DN(Ds5,5,0x000),
    DN(Gs5,5,0x000),
    DN(___,0,0x000),
    DN(___,0,0x000),
    DN(C_5,5,0x000),
    DN(___,0,0x000),
    DN(Cs5,5,0x000),
    DN(E_5,5,0x000),
    DN(Gs5,5,0x000),
    DN(Cs6,5,0x000),
    DN(E_6,5,0x000),
    DN(___,0,0x000),
    DN(Gs5,8,0x000),
    DN(___,0,0x000),
};
static const unsigned char P13_battle[] = {
    DN(E_6,5,0x000),
    DN(___,0,0x000),
    DN(Gs5,5,0x000),
    DN(E_6,5,0x000),
    DN(___,0,0x000),
    DN(Fs6,5,0x000),
    DN(E_6,5,0x000),
    DN(Ds6,5,0x000),
    DN(E_6,5,0x000),
    DN(___,0,0x000),
    DN(Gs5,5,0x000),
    DN(E_6,5,0x000),
    DN(___,0,0x000),
    DN(___,0,0x000),
    DN(___,0,0x000),
    DN(___,0,0x000),
    DN(Ds6,5,0x000),
    DN(___,0,0x000),
    DN(B_5,5,0x000),
    DN(___,0,0x000),
    DN(Fs6,5,0x000),
    DN(___,0,0x000),
    DN(Ds6,5,0x000),
    DN(___,0,0x000),
    DN(E_6,5,0x000),
    DN(___,0,0x000),
    DN(Gs5,5,0x000),
    DN(E_6,5,0x000),
    DN(___,0,0x000),
    DN(___,0,0x000),
    DN(___,0,0x000),
    DN(___,0,0x000),
    DN(E_5,5,0x000),
    DN(___,0,0x000),
    DN(B_5,5,0x000),
    DN(___,0,0x000),
    DN(Ds5,5,0x000),
    DN(___,0,0x000),
    DN(Gs5,5,0x000),
    DN(___,0,0x000),
    DN(___,0,0x000),
    DN(___,0,0x000),
    DN(___,0,0x000),
    DN(___,0,0x000),
    DN(___,0,0x000),
    DN(___,0,0x000),
    DN(___,0,0x000),
    DN(___,0,0x000),
    DN(___,0,0x000),
    DN(___,0,0x000),
    DN(___,0,0x000),
    DN(___,0,0x000),
    DN(___,0,0x000),
    DN(___,0,0x000),
    DN(___,0,0x000),
    DN(___,0,0x000),
    DN(___,0,0x000),
    DN(___,0,0x000),
    DN(___,0,0x000),
    DN(___,0,0x000),
    DN(___,0,0x000),
    DN(___,0,0x000),
    DN(___,0,0x000),
    DN(___,0,0x000),
};
static const unsigned char P14_battle[] = {
    DN(E_6,2,0x000),
    DN(___,0,0x000),
    DN(Fs6,2,0x000),
    DN(___,0,0x000),
    DN(Cs6,2,0x000),
    DN(___,0,0x000),
    DN(___,0,0x000),
    DN(___,0,0x000),
    DN(E_6,2,0x000),
    DN(___,0,0x000),
    DN(Fs6,2,0x000),
    DN(___,0,0x000),
    DN(Cs6,2,0x000),
    DN(___,0,0x000),
    DN(___,0,0x000),
    DN(___,0,0x000),
    DN(Fs6,2,0x000),
    DN(___,0,0x000),
    DN(Gs6,2,0x000),
    DN(___,0,0x000),
    DN(Ds6,2,0x000),
    DN(___,0,0x000),
    DN(___,0,0x000),
    DN(___,0,0x000),
    DN(E_6,2,0x000),
    DN(___,0,0x000),
    DN(Fs6,2,0x000),
    DN(___,0,0x000),
    DN(Cs6,2,0x000),
    DN(___,0,0x000),
    DN(___,0,0x000),
    DN(___,0,0x000),
    DN(Cs6,2,0x000),
    DN(___,0,0x000),
    DN(Cs6,2,0x000),
    DN(___,0,0x000),
    DN(Gs6,2,0x000),
    DN(___,0,0x000),
    DN(A_6,2,0x000),
    DN(___,0,0x000),
    DN(Fs6,2,0x000),
    DN(___,0,0x000),
    DN(Fs6,2,0x000),
    DN(___,0,0x000),
    DN(Ds6,2,0x000),
    DN(___,0,0x000),
    DN(Gs5,2,0x000),
    DN(___,0,0x000),
    DN(___,0,0x000),
    DN(___,0,0x000),
    DN(Ds6,2,0x000),
    DN(___,0,0x000),
    DN(Gs6,2,0x000),
    DN(___,0,0x000),
    DN(C_7,2,0x000),
    DN(___,0,0x000),
    DN(Cs6,2,0x000),
    DN(E_6,2,0x000),
    DN(Cs6,2,0x000),
    DN(C_6,2,0x000),
    DN(Cs6,2,0x000),
    DN(___,0,0x000),
    DN(___,0,0x000),
    DN(___,0,0x000),
};

static const unsigned char* const order1_battle[] = {P0_battle,P4_battle,P8_battle,P12_battle};
static const unsigned char* const order2_battle[] = {P1_battle,P5_battle,P9_battle,P13_battle};
static const unsigned char* const order3_battle[] = {P2_battle,P6_battle,P10_battle,P14_battle};
static const unsigned char* const order4_battle[] = {P3_battle,P3_battle,P3_battle,P3_battle};

static const hUGEDutyInstr_t duty_instruments_battle[] = {
    {8,0,240,0,128},
    {8,64,240,0,128},
    {8,128,240,0,128},
    {8,192,240,0,128},
    {8,0,241,0,128},
    {8,64,241,0,128},
    {8,128,241,0,128},
    {8,192,241,0,128},
    {8,128,240,0,128},
    {8,128,240,0,128},
    {8,128,240,0,128},
    {8,128,240,0,128},
    {8,128,240,0,128},
    {8,128,240,0,128},
    {8,128,240,0,128},
};
static const hUGEWaveInstr_t wave_instruments_battle[] = {
    {0,32,0,0,128},
    {239,32,1,0,192},
    {0,32,2,0,128},
    {0,32,3,0,128},
    {0,32,4,0,128},
    {0,32,5,0,128},
    {0,32,6,0,128},
    {0,32,7,0,128},
    {0,32,8,0,128},
    {0,32,9,0,128},
    {0,32,10,0,128},
    {0,32,11,0,128},
    {0,32,12,0,128},
    {0,32,13,0,128},
    {0,32,14,0,128},
};
static const hUGENoiseInstr_t noise_instruments_battle[] = {
    {240,0,0,0,0},
    {240,0,0,0,0},
    {240,0,0,0,0},
    {240,0,0,0,0},
    {240,0,0,0,0},
    {240,0,0,0,0},
    {240,0,0,0,0},
    {240,0,0,0,0},
    {240,0,0,0,0},
    {240,0,0,0,0},
    {240,0,0,0,0},
    {240,0,0,0,0},
    {240,0,0,0,0},
    {240,0,0,0,0},
    {240,0,0,0,0},
};

static const unsigned char waves_battle[] = {
    0,0,255,255,255,255,255,255,255,255,255,255,255,255,255,255,
    0,0,0,0,255,255,255,255,255,255,255,255,255,255,255,255,
    0,0,0,0,0,0,0,0,255,255,255,255,255,255,255,255,
    0,0,0,0,0,0,0,0,0,0,0,0,255,255,255,255,
    0,1,18,35,52,69,86,103,120,137,154,171,188,205,222,239,
    254,220,186,152,118,84,50,16,18,52,86,120,154,188,222,255,
    122,205,219,117,33,19,104,189,220,151,65,1,71,156,221,184,
    15,15,15,15,15,15,15,15,15,15,15,15,15,15,15,15,
    254,252,250,248,246,244,242,240,242,244,246,248,250,252,254,255,
    254,221,204,187,170,153,136,119,138,189,241,36,87,138,189,238,
    132,17,97,237,87,71,90,173,206,163,23,121,221,32,3,71,
    163,26,125,74,12,147,198,44,149,91,60,148,198,204,94,121,
    146,233,86,60,212,92,58,81,66,32,163,161,144,78,113,152,
    56,219,238,14,40,222,85,1,40,105,70,189,53,34,158,224,
    205,75,180,118,4,10,88,66,61,197,177,215,133,45,148,84,
    9,204,57,224,67,144,173,94,179,42,66,145,80,110,145,199,
};

const hUGESong_t battle_bgm = {7, &order_cnt_battle, order1_battle, order2_battle, order3_battle,order4_battle, duty_instruments_battle, wave_instruments_battle, noise_instruments_battle, NULL, waves_battle};
