#include "../include/hUGEDriver.h"
#include <stddef.h>

static const unsigned char order_cnt = 10;

static const unsigned char P1[] = {
    DN(___,0,0x000),
    DN(___,0,0x000),
    DN(___,0,0x000),
    DN(___,0,0x000),
    DN(___,0,0x000),
    DN(___,0,0x000),
    DN(___,0,0x000),
    DN(___,0,0x000),
    DN(___,0,0x000),
    DN(___,0,0x000),
    DN(___,0,0x000),
    DN(___,0,0x000),
    DN(___,0,0x000),
    DN(___,0,0x000),
    DN(___,0,0x000),
    DN(___,0,0x000),
    DN(___,0,0x000),
    DN(___,0,0x000),
    DN(___,0,0x000),
    DN(___,0,0x000),
    DN(___,0,0x000),
    DN(___,0,0x000),
    DN(___,0,0x000),
    DN(___,0,0x000),
    DN(___,0,0x000),
    DN(___,0,0x000),
    DN(___,0,0x000),
    DN(___,0,0x000),
    DN(___,0,0x000),
    DN(___,0,0x000),
    DN(___,0,0x000),
    DN(___,0,0x000),
    DN(___,0,0x000),
    DN(___,0,0x000),
    DN(___,0,0x000),
    DN(___,0,0x000),
    DN(___,0,0x000),
    DN(___,0,0x000),
    DN(___,0,0x000),
    DN(___,0,0x000),
    DN(___,0,0x000),
    DN(___,0,0x000),
    DN(___,0,0x000),
    DN(___,0,0x000),
    DN(___,0,0x000),
    DN(___,0,0x000),
    DN(___,0,0x000),
    DN(___,0,0x000),
    DN(___,0,0x000),
    DN(___,0,0x000),
    DN(___,0,0x000),
    DN(___,0,0x000),
    DN(___,0,0x000),
    DN(___,0,0x000),
    DN(___,0,0x000),
    DN(___,0,0x000),
    DN(___,0,0x000),
    DN(___,0,0x000),
    DN(___,0,0x000),
    DN(___,0,0x000),
    DN(___,0,0x000),
    DN(___,0,0x000),
    DN(___,0,0x000),
    DN(___,0,0x000),
};
static const unsigned char P4[] = {
    DN(Gs4,5,0x000),
    DN(___,0,0x000),
    DN(Cs4,5,0x000),
    DN(___,0,0x000),
    DN(F_4,5,0x000),
    DN(___,0,0x000),
    DN(Gs4,5,0x000),
    DN(___,0,0x000),
    DN(C_5,5,0x000),
    DN(___,0,0x000),
    DN(Ds5,5,0x000),
    DN(___,0,0x000),
    DN(Cs5,5,0x000),
    DN(___,0,0x000),
    DN(C_5,5,0x000),
    DN(___,0,0x000),
    DN(F_3,5,0x000),
    DN(___,0,0x000),
    DN(C_3,5,0x000),
    DN(___,0,0x000),
    DN(F_3,5,0x000),
    DN(___,0,0x000),
    DN(G_3,5,0x000),
    DN(___,0,0x000),
    DN(Gs3,5,0x000),
    DN(___,0,0x000),
    DN(C_4,5,0x000),
    DN(___,0,0x000),
    DN(As3,5,0x000),
    DN(___,0,0x000),
    DN(Gs3,5,0x000),
    DN(___,0,0x000),
    DN(F_4,5,0x000),
    DN(___,0,0x000),
    DN(Cs4,5,0x000),
    DN(___,0,0x000),
    DN(F_4,5,0x000),
    DN(___,0,0x000),
    DN(Gs4,5,0x000),
    DN(___,0,0x000),
    DN(C_5,5,0x000),
    DN(___,0,0x000),
    DN(Ds5,5,0x000),
    DN(___,0,0x000),
    DN(Cs5,5,0x000),
    DN(___,0,0x000),
    DN(C_5,5,0x000),
    DN(___,0,0x000),
    DN(F_3,5,0x000),
    DN(___,0,0x000),
    DN(C_3,5,0x000),
    DN(___,0,0x000),
    DN(F_3,5,0x000),
    DN(___,0,0x000),
    DN(G_3,5,0x000),
    DN(___,0,0x000),
    DN(Gs3,5,0x000),
    DN(___,0,0x000),
    DN(C_4,5,0x000),
    DN(___,0,0x000),
    DN(As3,5,0x000),
    DN(___,0,0x000),
    DN(Gs3,5,0x000),
    DN(___,0,0x000),
};
static const unsigned char P6[] = {
    DN(F_4,7,0x000),
    DN(___,0,0x000),
    DN(___,0,0x000),
    DN(___,0,0x000),
    DN(F_4,7,0x000),
    DN(___,0,0x000),
    DN(Gs4,7,0x000),
    DN(___,0,0x000),
    DN(As4,7,0x000),
    DN(___,0,0x000),
    DN(___,0,0x000),
    DN(___,0,0x000),
    DN(As4,7,0x000),
    DN(___,0,0x000),
    DN(C_5,7,0x000),
    DN(___,0,0x000),
    DN(F_4,7,0x000),
    DN(___,0,0x000),
    DN(___,0,0x000),
    DN(___,0,0x000),
    DN(___,0,0x000),
    DN(___,0,0x000),
    DN(___,0,0x000),
    DN(___,0,0x000),
    DN(___,0,0x000),
    DN(___,0,0x000),
    DN(___,0,0x000),
    DN(___,0,0x000),
    DN(___,0,0x000),
    DN(___,0,0x000),
    DN(___,0,0x000),
    DN(___,0,0x000),
    DN(___,0,0x000),
    DN(___,0,0x000),
    DN(___,0,0x000),
    DN(___,0,0x000),
    DN(C_5,7,0x000),
    DN(___,0,0x000),
    DN(Cs5,7,0x000),
    DN(___,0,0x000),
    DN(F_5,7,0x000),
    DN(___,0,0x000),
    DN(Ds5,7,0x000),
    DN(___,0,0x000),
    DN(C_5,7,0x000),
    DN(___,0,0x000),
    DN(___,0,0x000),
    DN(___,0,0x000),
    DN(___,0,0x000),
    DN(___,0,0x000),
    DN(G_5,7,0x000),
    DN(___,0,0x000),
    DN(Gs5,7,0x000),
    DN(___,0,0x000),
    DN(G_5,7,0x000),
    DN(___,0,0x000),
    DN(F_5,7,0x000),
    DN(___,0,0x000),
    DN(___,0,0x000),
    DN(___,0,0x000),
    DN(Gs5,7,0x000),
    DN(___,0,0x000),
    DN(As5,7,0x000),
    DN(___,0,0x000),
};
static const unsigned char P8[] = {
    DN(F_4,5,0x000),
    DN(___,0,0x000),
    DN(Cs4,5,0x000),
    DN(___,0,0x000),
    DN(F_4,5,0x000),
    DN(___,0,0x000),
    DN(Gs4,5,0x000),
    DN(___,0,0x000),
    DN(C_5,5,0x000),
    DN(___,0,0x000),
    DN(Ds5,5,0x000),
    DN(___,0,0x000),
    DN(Cs5,5,0x000),
    DN(___,0,0x000),
    DN(C_5,5,0x000),
    DN(___,0,0x000),
    DN(F_3,5,0x000),
    DN(___,0,0x000),
    DN(C_3,5,0x000),
    DN(___,0,0x000),
    DN(F_3,5,0x000),
    DN(___,0,0x000),
    DN(G_3,5,0x000),
    DN(___,0,0x000),
    DN(Gs3,5,0x000),
    DN(___,0,0x000),
    DN(C_4,5,0x000),
    DN(___,0,0x000),
    DN(As3,5,0x000),
    DN(___,0,0x000),
    DN(Gs3,5,0x000),
    DN(___,0,0x000),
    DN(F_4,5,0x000),
    DN(___,0,0x000),
    DN(Cs4,5,0x000),
    DN(___,0,0x000),
    DN(F_4,5,0x000),
    DN(___,0,0x000),
    DN(Gs4,5,0x000),
    DN(___,0,0x000),
    DN(C_5,5,0x000),
    DN(___,0,0x000),
    DN(Ds5,5,0x000),
    DN(___,0,0x000),
    DN(Cs5,5,0x000),
    DN(___,0,0x000),
    DN(C_5,5,0x000),
    DN(___,0,0x000),
    DN(F_3,5,0x000),
    DN(___,0,0x000),
    DN(C_3,5,0x000),
    DN(___,0,0x000),
    DN(F_3,5,0x000),
    DN(___,0,0x000),
    DN(G_3,5,0x000),
    DN(___,0,0x000),
    DN(Gs3,5,0x000),
    DN(___,0,0x000),
    DN(C_4,5,0x000),
    DN(___,0,0x000),
    DN(As3,5,0x000),
    DN(___,0,0x000),
    DN(Gs3,5,0x000),
    DN(___,0,0x000),
};
static const unsigned char P12[] = {
    DN(___,0,0x000),
    DN(___,0,0x000),
    DN(___,0,0x000),
    DN(___,0,0x000),
    DN(F_4,5,0x000),
    DN(___,0,0x000),
    DN(Gs4,5,0x000),
    DN(___,0,0x000),
    DN(C_5,5,0x000),
    DN(___,0,0x000),
    DN(___,0,0x000),
    DN(___,0,0x000),
    DN(G_4,5,0x000),
    DN(___,0,0x000),
    DN(___,0,0x000),
    DN(___,0,0x000),
    DN(F_4,5,0x000),
    DN(___,0,0x000),
    DN(___,0,0x000),
    DN(___,0,0x000),
    DN(C_5,5,0x000),
    DN(___,0,0x000),
    DN(___,0,0x000),
    DN(___,0,0x000),
    DN(___,0,0x000),
    DN(___,0,0x000),
    DN(___,0,0x000),
    DN(___,0,0x000),
    DN(___,0,0x000),
    DN(___,0,0x000),
    DN(___,0,0x000),
    DN(___,0,0x000),
    DN(G_4,5,0x000),
    DN(___,0,0x000),
    DN(C_5,5,0x000),
    DN(___,0,0x000),
    DN(B_4,5,0x000),
    DN(___,0,0x000),
    DN(C_5,5,0x000),
    DN(___,0,0x000),
    DN(D_5,5,0x000),
    DN(___,0,0x000),
    DN(G_4,5,0x000),
    DN(___,0,0x000),
    DN(Gs4,5,0x000),
    DN(___,0,0x000),
    DN(G_4,5,0x000),
    DN(___,0,0x000),
    DN(F_4,5,0x000),
    DN(___,0,0x000),
    DN(___,0,0x000),
    DN(___,0,0x000),
    DN(___,0,0x000),
    DN(___,0,0x000),
    DN(F_4,5,0x000),
    DN(G_4,5,0x000),
    DN(Ds4,5,0x000),
    DN(___,0,0x000),
    DN(F_4,5,0x000),
    DN(___,0,0x000),
    DN(D_4,5,0x000),
    DN(___,0,0x000),
    DN(Ds4,5,0x000),
    DN(___,0,0x000),
};
static const unsigned char P14[] = {
    DN(C_6,7,0x000),
    DN(___,0,0x000),
    DN(Gs5,7,0x000),
    DN(___,0,0x000),
    DN(F_5,7,0x000),
    DN(___,0,0x000),
    DN(Gs5,7,0x000),
    DN(___,0,0x000),
    DN(As5,7,0x000),
    DN(___,0,0x000),
    DN(G_5,7,0x000),
    DN(___,0,0x000),
    DN(F_5,7,0x000),
    DN(___,0,0x000),
    DN(E_5,7,0x000),
    DN(___,0,0x000),
    DN(F_5,7,0x000),
    DN(___,0,0x000),
    DN(___,0,0x000),
    DN(___,0,0x000),
    DN(Gs5,7,0x000),
    DN(___,0,0x000),
    DN(___,0,0x000),
    DN(___,0,0x000),
    DN(F_4,7,0x000),
    DN(Ds4,7,0x000),
    DN(F_4,7,0x000),
    DN(G_4,7,0x000),
    DN(F_4,7,0x000),
    DN(___,0,0x000),
    DN(___,0,0x000),
    DN(___,0,0x000),
    DN(G_4,7,0x000),
    DN(___,0,0x000),
    DN(___,0,0x000),
    DN(___,0,0x000),
    DN(Gs4,7,0x000),
    DN(___,0,0x000),
    DN(___,0,0x000),
    DN(___,0,0x000),
    DN(F_4,7,0x000),
    DN(___,0,0x000),
    DN(___,0,0x000),
    DN(___,0,0x000),
    DN(G_4,7,0x000),
    DN(___,0,0x000),
    DN(___,0,0x000),
    DN(___,0,0x000),
    DN(Ds4,7,0x000),
    DN(F_4,7,0x000),
    DN(Ds4,7,0x000),
    DN(D_4,7,0x000),
    DN(Ds4,7,0x000),
    DN(___,0,0x000),
    DN(B_4,7,0x000),
    DN(C_5,7,0x000),
    DN(___,0,0x000),
    DN(___,0,0x000),
    DN(___,0,0x000),
    DN(___,0,0x000),
    DN(___,0,0x000),
    DN(___,0,0x000),
    DN(___,0,0x000),
    DN(___,0,0x000),
};
static const unsigned char P20[] = {
    DN(As4,5,0x000),
    DN(___,0,0x000),
    DN(Ds5,5,0x000),
    DN(___,0,0x000),
    DN(D_5,5,0x000),
    DN(___,0,0x000),
    DN(Ds5,5,0x000),
    DN(___,0,0x000),
    DN(F_5,5,0x000),
    DN(___,0,0x000),
    DN(As4,5,0x000),
    DN(___,0,0x000),
    DN(B_4,5,0x000),
    DN(___,0,0x000),
    DN(As4,5,0x000),
    DN(___,0,0x000),
    DN(Gs4,5,0x000),
    DN(___,0,0x000),
    DN(___,0,0x000),
    DN(___,0,0x000),
    DN(___,0,0x000),
    DN(___,0,0x000),
    DN(Gs4,5,0x000),
    DN(As4,5,0x000),
    DN(Fs4,5,0x000),
    DN(___,0,0x000),
    DN(Gs4,5,0x000),
    DN(___,0,0x000),
    DN(F_4,5,0x000),
    DN(___,0,0x000),
    DN(Fs4,5,0x000),
    DN(___,0,0x000),
    DN(Ds5,5,0x000),
    DN(___,0,0x000),
    DN(As4,5,0x000),
    DN(___,0,0x000),
    DN(Fs4,5,0x000),
    DN(___,0,0x000),
    DN(As4,5,0x000),
    DN(___,0,0x000),
    DN(Ds4,5,0x000),
    DN(___,0,0x000),
    DN(___,0,0x000),
    DN(___,0,0x000),
    DN(___,0,0x000),
    DN(___,0,0x000),
    DN(___,0,0x000),
    DN(___,0,0x000),
    DN(D_4,5,0x000),
    DN(___,0,0x000),
    DN(___,0,0x000),
    DN(___,0,0x000),
    DN(___,0,0x000),
    DN(___,0,0x000),
    DN(___,0,0x000),
    DN(___,0,0x000),
    DN(___,0,0x000),
    DN(D_5,5,0x000),
    DN(___,0,0x000),
    DN(___,0,0x000),
    DN(___,0,0x000),
    DN(___,0,0x000),
    DN(___,0,0x000),
    DN(___,0,0x000),
};
static const unsigned char P22[] = {
    DN(As4,7,0x000),
    DN(___,0,0x000),
    DN(___,0,0x000),
    DN(___,0,0x000),
    DN(B_4,7,0x000),
    DN(___,0,0x000),
    DN(___,0,0x000),
    DN(___,0,0x000),
    DN(Gs4,7,0x000),
    DN(___,0,0x000),
    DN(___,0,0x000),
    DN(___,0,0x000),
    DN(As4,7,0x000),
    DN(___,0,0x000),
    DN(___,0,0x000),
    DN(___,0,0x000),
    DN(Fs4,7,0x000),
    DN(Gs4,7,0x000),
    DN(Fs4,7,0x000),
    DN(F_4,7,0x000),
    DN(Fs4,7,0x000),
    DN(___,0,0x000),
    DN(D_5,7,0x000),
    DN(Ds5,7,0x000),
    DN(___,0,0x000),
    DN(___,0,0x000),
    DN(___,0,0x000),
    DN(___,0,0x000),
    DN(___,0,0x000),
    DN(___,0,0x000),
    DN(___,0,0x000),
    DN(___,0,0x000),
    DN(Ds4,7,0x000),
    DN(___,0,0x000),
    DN(___,0,0x000),
    DN(___,0,0x000),
    DN(___,0,0x000),
    DN(___,0,0x000),
    DN(___,0,0x000),
    DN(___,0,0x000),
    DN(___,0,0x000),
    DN(___,0,0x000),
    DN(___,0,0x000),
    DN(___,0,0x000),
    DN(Fs4,7,0x000),
    DN(___,0,0x000),
    DN(___,0,0x000),
    DN(___,0,0x000),
    DN(F_4,7,0x000),
    DN(___,0,0x000),
    DN(___,0,0x000),
    DN(___,0,0x000),
    DN(___,0,0x000),
    DN(___,0,0x000),
    DN(___,0,0x000),
    DN(___,0,0x000),
    DN(___,0,0x000),
    DN(D_4,7,0x000),
    DN(___,0,0x000),
    DN(___,0,0x000),
    DN(___,0,0x000),
    DN(___,0,0x000),
    DN(___,0,0x000),
    DN(___,0,0x000),
};
static const unsigned char P24[] = {
    DN(___,0,0x000),
    DN(___,0,0x000),
    DN(___,0,0x000),
    DN(___,0,0x000),
    DN(___,0,0x000),
    DN(___,0,0x000),
    DN(___,0,0x000),
    DN(___,0,0x000),
    DN(As4,5,0x000),
    DN(___,0,0x000),
    DN(D_5,5,0x000),
    DN(___,0,0x000),
    DN(___,0,0x000),
    DN(___,0,0x000),
    DN(___,0,0x000),
    DN(___,0,0x000),
    DN(___,0,0x000),
    DN(___,0,0x000),
    DN(___,0,0x000),
    DN(___,0,0x000),
    DN(___,0,0x000),
    DN(___,0,0x000),
    DN(Fs5,5,0x000),
    DN(___,0,0x000),
    DN(___,0,0x000),
    DN(___,0,0x000),
    DN(F_5,5,0x000),
    DN(___,0,0x000),
    DN(___,0,0x000),
    DN(___,0,0x000),
    DN(D_4,5,0x000),
    DN(___,0,0x000),
    DN(___,0,0x000),
    DN(___,0,0x000),
    DN(Ds4,5,0x000),
    DN(___,0,0x000),
    DN(As3,5,0x000),
    DN(___,0,0x000),
    DN(C_4,5,0x000),
    DN(___,0,0x000),
    DN(G_3,5,0x000),
    DN(___,0,0x000),
    DN(As3,5,0x000),
    DN(F_3,5,0x000),
    DN(Ds3,5,0x000),
    DN(F_3,5,0x000),
    DN(D_3,5,0x000),
    DN(___,0,0x000),
    DN(Ds3,5,0x000),
    DN(Ds4,5,0x000),
    DN(___,0,0x000),
    DN(___,0,0x000),
    DN(___,0,0x000),
    DN(___,0,0x000),
    DN(___,0,0x000),
    DN(___,0,0x000),
    DN(F_4,5,0x000),
    DN(___,0,0x000),
    DN(___,0,0x000),
    DN(___,0,0x000),
    DN(Fs4,5,0x000),
    DN(___,0,0x000),
    DN(___,0,0x000),
    DN(___,0,0x000),
};
static const unsigned char P25[] = {
    DN(___,0,0x000),
    DN(___,0,0x000),
    DN(___,0,0x000),
    DN(___,0,0x000),
    DN(___,0,0x000),
    DN(___,0,0x000),
    DN(___,0,0x000),
    DN(___,0,0x000),
    DN(___,0,0x000),
    DN(___,0,0x000),
    DN(F_5,5,0x000),
    DN(___,0,0x000),
    DN(Gs5,5,0x000),
    DN(___,0,0x000),
    DN(___,0,0x000),
    DN(___,0,0x000),
    DN(___,0,0x000),
    DN(___,0,0x000),
    DN(___,0,0x000),
    DN(___,0,0x000),
    DN(___,0,0x000),
    DN(___,0,0x000),
    DN(___,0,0x000),
    DN(___,0,0x000),
    DN(___,0,0x000),
    DN(___,0,0x000),
    DN(___,0,0x000),
    DN(___,0,0x000),
    DN(___,0,0x000),
    DN(___,0,0x000),
    DN(___,0,0x000),
    DN(___,0,0x000),
    DN(___,0,0x000),
    DN(___,0,0x000),
    DN(___,0,0x000),
    DN(___,0,0x000),
    DN(___,0,0x000),
    DN(___,0,0x000),
    DN(___,0,0x000),
    DN(___,0,0x000),
    DN(___,0,0x000),
    DN(___,0,0x000),
    DN(___,0,0x000),
    DN(___,0,0x000),
    DN(___,0,0x000),
    DN(___,0,0x000),
    DN(___,0,0x000),
    DN(___,0,0x000),
    DN(___,0,0x000),
    DN(___,0,0x000),
    DN(___,0,0x000),
    DN(___,0,0x000),
    DN(___,0,0x000),
    DN(___,0,0x000),
    DN(___,0,0x000),
    DN(___,0,0x000),
    DN(___,0,0x000),
    DN(___,0,0x000),
    DN(___,0,0x000),
    DN(___,0,0x000),
    DN(___,0,0x000),
    DN(___,0,0x000),
    DN(___,0,0x000),
    DN(___,0,0x000),
};
static const unsigned char P26[] = {
    DN(___,0,0x000),
    DN(___,0,0x000),
    DN(Fs4,7,0x000),
    DN(Gs4,7,0x000),
    DN(Fs4,7,0x000),
    DN(F_4,7,0x000),
    DN(Fs4,7,0x000),
    DN(___,0,0x000),
    DN(___,0,0x000),
    DN(___,0,0x000),
    DN(___,0,0x000),
    DN(___,0,0x000),
    DN(___,0,0x000),
    DN(___,0,0x000),
    DN(Gs4,7,0x000),
    DN(___,0,0x000),
    DN(As4,7,0x000),
    DN(___,0,0x000),
    DN(B_4,7,0x000),
    DN(___,0,0x000),
    DN(___,0,0x000),
    DN(___,0,0x000),
    DN(Gs4,7,0x000),
    DN(___,0,0x000),
    DN(___,0,0x000),
    DN(___,0,0x000),
    DN(As4,7,0x000),
    DN(___,0,0x000),
    DN(___,0,0x000),
    DN(___,0,0x000),
    DN(D_4,7,0x000),
    DN(___,0,0x000),
    DN(___,0,0x000),
    DN(___,0,0x000),
    DN(Ds4,7,0x000),
    DN(___,0,0x000),
    DN(___,0,0x000),
    DN(___,0,0x000),
    DN(___,0,0x000),
    DN(___,0,0x000),
    DN(___,0,0x000),
    DN(___,0,0x000),
    DN(___,0,0x000),
    DN(___,0,0x000),
    DN(___,0,0x000),
    DN(___,0,0x000),
    DN(___,0,0x000),
    DN(___,0,0x000),
    DN(___,0,0x000),
    DN(___,0,0x000),
    DN(___,0,0x000),
    DN(___,0,0x000),
    DN(___,0,0x000),
    DN(___,0,0x000),
    DN(___,0,0x000),
    DN(___,0,0x000),
    DN(___,0,0x000),
    DN(___,0,0x000),
    DN(___,0,0x000),
    DN(___,0,0x000),
    DN(___,0,0x000),
    DN(___,0,0x000),
    DN(___,0,0x000),
    DN(___,0,0x000),
};

static const unsigned char* const order1[] = {P8,P4,P12,P20,P24};
static const unsigned char* const order2[] = {P1,P1,P1,P1,P25};
static const unsigned char* const order3[] = {P1,P6,P14,P22,P26};
static const unsigned char* const order4[] = {P1,P1,P1,P1,P1};

static const hUGEDutyInstr_t duty_instruments[] = {
    {8,0,240,0,128},
    {8,64,240,0,192},
    {8,128,240,0,128},
    {8,210,240,0,192},
    {8,0,241,0,128},
    {8,64,241,0,128},
    {8,128,241,0,128},
    {8,192,241,0,128},
    {8,128,240,0,128},
    {8,128,240,0,128},
    {8,128,240,0,128},
    {8,128,240,0,128},
    {8,128,240,0,128},
    {8,128,240,0,128},
    {8,128,240,0,128},
};
static const hUGEWaveInstr_t wave_instruments[] = {
    {0,32,0,0,128},
    {100,32,1,0,192},
    {0,32,2,0,128},
    {0,32,3,0,128},
    {194,32,4,0,192},
    {0,32,5,0,128},
    {108,32,6,0,192},
    {0,32,7,0,128},
    {0,32,8,0,128},
    {0,32,9,0,128},
    {0,32,10,0,128},
    {0,32,11,0,128},
    {0,32,12,0,128},
    {0,32,13,0,128},
    {0,32,14,0,128},
};
static const hUGENoiseInstr_t noise_instruments[] = {
    {240,0,0,0,0},
    {240,0,0,0,0},
    {240,0,0,0,0},
    {240,0,0,0,0},
    {240,0,0,0,0},
    {240,0,0,0,0},
    {240,0,0,0,0},
    {240,0,0,0,0},
    {240,0,0,0,0},
    {240,0,0,0,0},
    {240,0,0,0,0},
    {240,0,0,0,0},
    {240,0,0,0,0},
    {240,0,0,0,0},
    {240,0,0,0,0},
};

static const unsigned char waves[] = {
    0,0,255,255,236,186,170,153,152,136,127,255,255,255,255,255,
    0,0,0,0,255,255,255,255,255,255,255,255,255,255,255,255,
    0,0,0,0,0,0,0,0,255,255,255,255,255,255,255,255,
    0,0,0,0,0,0,0,0,0,0,0,0,255,255,255,255,
    0,1,18,35,52,69,86,103,120,137,154,171,188,205,222,239,
    254,220,186,152,118,84,50,16,18,52,86,120,154,188,222,255,
    122,205,219,117,33,19,104,189,220,151,65,1,71,156,221,184,
    15,15,15,15,15,15,15,15,15,15,15,15,15,15,15,15,
    254,252,250,248,246,244,242,240,242,244,246,248,250,252,254,255,
    254,221,204,187,170,153,136,119,138,189,241,36,87,138,189,238,
    132,17,97,237,87,71,90,173,206,163,23,121,221,32,3,71,
    230,202,91,107,57,188,166,196,132,190,213,34,24,69,85,210,
    32,167,39,45,195,24,135,24,189,50,16,119,13,173,165,9,
    46,45,152,183,210,138,139,156,87,156,36,137,126,162,134,165,
    182,80,129,120,237,35,105,27,124,193,22,7,171,109,98,172,
    230,43,184,149,67,32,67,29,72,134,199,164,103,145,224,16,
};

const hUGESong_t forest_bgm = {7, &order_cnt, order1, order2, order3,order4, duty_instruments, wave_instruments, noise_instruments, NULL, waves};
