#include "../include/hUGEDriver.h"
#include <stddef.h>

static const unsigned char order_cnt_fortress = 6;

static const unsigned char P0_fortress[] = {
    DN(Gs4,1,0x000),
    DN(___,0,0x000),
    DN(E_4,1,0x000),
    DN(___,0,0x000),
    DN(Ds4,1,0x000),
    DN(___,0,0x000),
    DN(Cs4,1,0xC0C),
    DN(___,0,0x000),
    DN(___,1,0xE00),
    DN(___,0,0x000),
    DN(___,0,0x000),
    DN(___,0,0x000),
    DN(Ds4,1,0x000),
    DN(___,0,0x000),
    DN(E_4,1,0x000),
    DN(___,0,0x000),
    DN(A_4,1,0x000),
    DN(___,0,0x000),
    DN(E_4,0,0x000),
    DN(___,0,0x000),
    DN(Ds4,0,0x000),
    DN(___,0,0x000),
    DN(Cs4,1,0x000),
    DN(___,0,0x000),
    DN(___,0,0xE00),
    DN(___,0,0x000),
    DN(___,0,0x000),
    DN(___,0,0x000),
    DN(Ds4,1,0x000),
    DN(___,0,0x000),
    DN(E_4,1,0x000),
    DN(___,0,0x000),
    DN(Gs4,1,0x000),
    DN(___,0,0x000),
    DN(E_4,0,0x000),
    DN(___,0,0x000),
    DN(B_4,1,0x000),
    DN(___,0,0x000),
    DN(Gs4,1,0x000),
    DN(___,0,0x000),
    DN(___,0,0xE00),
    DN(___,0,0x000),
    DN(___,0,0x000),
    DN(___,0,0x000),
    DN(Fs4,1,0x000),
    DN(___,0,0x000),
    DN(E_4,1,0x000),
    DN(___,0,0x000),
    DN(Fs4,1,0x000),
    DN(___,0,0x000),
    DN(___,0,0x000),
    DN(___,0,0x000),
    DN(___,0,0x000),
    DN(___,0,0x000),
    DN(___,0,0x000),
    DN(___,0,0x000),
    DN(E_5,1,0x000),
    DN(___,0,0x000),
    DN(___,0,0x000),
    DN(___,0,0x000),
    DN(Ds4,1,0x000),
    DN(___,0,0x000),
    DN(Fs4,1,0x000),
    DN(___,0,0x000),
};
static const unsigned char P1_fortress[] = {
    DN(Cs4,2,0x000),
    DN(___,0,0x000),
    DN(Gs4,2,0x000),
    DN(___,0,0x000),
    DN(Cs3,3,0x000),
    DN(___,0,0x000),
    DN(___,0,0xE00),
    DN(___,0,0x000),
    DN(___,0,0xE00),
    DN(___,0,0x000),
    DN(___,0,0x000),
    DN(___,0,0x000),
    DN(Gs4,2,0x000),
    DN(___,0,0x000),
    DN(___,0,0x000),
    DN(___,0,0x000),
    DN(A_4,2,0x000),
    DN(___,0,0x000),
    DN(___,0,0x000),
    DN(___,0,0x000),
    DN(Fs3,2,0x000),
    DN(___,0,0x000),
    DN(___,0,0x000),
    DN(___,0,0x000),
    DN(___,0,0xE00),
    DN(___,0,0x000),
    DN(___,0,0x000),
    DN(___,0,0x000),
    DN(A_4,1,0x000),
    DN(___,0,0x000),
    DN(___,0,0x000),
    DN(___,0,0x000),
    DN(Gs4,1,0x000),
    DN(___,0,0x000),
    DN(___,0,0x000),
    DN(___,0,0x000),
    DN(E_3,1,0x000),
    DN(___,0,0x000),
    DN(___,0,0x000),
    DN(___,0,0x000),
    DN(___,0,0xE00),
    DN(___,0,0x000),
    DN(___,0,0x000),
    DN(___,0,0x000),
    DN(Fs5,1,0x000),
    DN(___,0,0x000),
    DN(E_5,1,0x000),
    DN(___,0,0x000),
    DN(Fs5,1,0x000),
    DN(___,0,0x000),
    DN(___,0,0x000),
    DN(___,0,0x000),
    DN(___,0,0x000),
    DN(___,0,0xE00),
    DN(___,0,0x000),
    DN(___,0,0x000),
    DN(E_5,1,0x000),
    DN(___,0,0x000),
    DN(___,0,0x000),
    DN(___,0,0x000),
    DN(Ds5,1,0x000),
    DN(___,0,0x000),
    DN(___,0,0x000),
    DN(___,0,0x000),
};
static const unsigned char P2_fortress[] = {
    DN(Cs4,11,0x000),
    DN(___,0,0x000),
    DN(___,0,0x000),
    DN(___,0,0x000),
    DN(___,0,0x000),
    DN(___,0,0x000),
    DN(___,0,0x000),
    DN(___,0,0x000),
    DN(Ds4,11,0x000),
    DN(___,0,0x000),
    DN(___,0,0x000),
    DN(___,0,0x000),
    DN(___,0,0x000),
    DN(___,0,0x000),
    DN(___,0,0x000),
    DN(___,0,0x000),
    DN(Cs4,11,0x000),
    DN(___,0,0x000),
    DN(___,0,0x000),
    DN(___,0,0x000),
    DN(Ds4,11,0x000),
    DN(___,0,0x000),
    DN(Fs4,11,0x000),
    DN(E_4,11,0x000),
    DN(Ds4,11,0x000),
    DN(___,0,0x000),
    DN(___,0,0x000),
    DN(___,0,0x000),
    DN(Ds4,11,0x000),
    DN(___,0,0x000),
    DN(___,0,0x000),
    DN(___,0,0x000),
    DN(B_4,11,0x000),
    DN(___,0,0x000),
    DN(___,0,0x000),
    DN(___,0,0x000),
    DN(Fs4,11,0x000),
    DN(___,0,0x000),
    DN(___,0,0x000),
    DN(___,0,0x000),
    DN(E_4,11,0x000),
    DN(Fs4,11,0x000),
    DN(E_4,11,0x000),
    DN(___,0,0x000),
    DN(Cs4,11,0x000),
    DN(___,0,0x000),
    DN(___,0,0x000),
    DN(___,0,0x000),
    DN(Gs4,1,0x000),
    DN(___,0,0x000),
    DN(___,0,0x000),
    DN(___,0,0x000),
    DN(C_6,2,0x000),
    DN(Cs6,2,0x000),
    DN(Ds6,2,0x000),
    DN(___,0,0x000),
    DN(C_4,2,0x000),
    DN(___,0,0x000),
    DN(___,0,0x000),
    DN(___,0,0x000),
    DN(Ds4,11,0x000),
    DN(___,0,0x000),
    DN(Fs4,11,0x000),
    DN(___,0,0x000),
};
static const unsigned char P3_fortress[] = {
    DN(___,0,0x000),
    DN(___,0,0x000),
    DN(___,0,0x000),
    DN(___,0,0x000),
    DN(___,0,0x000),
    DN(___,0,0x000),
    DN(___,0,0x000),
    DN(___,0,0x000),
    DN(___,0,0x000),
    DN(___,0,0x000),
    DN(___,0,0x000),
    DN(___,0,0x000),
    DN(___,0,0x000),
    DN(___,0,0x000),
    DN(___,0,0x000),
    DN(___,0,0x000),
    DN(___,0,0x000),
    DN(___,0,0x000),
    DN(___,0,0x000),
    DN(___,0,0x000),
    DN(___,0,0x000),
    DN(___,0,0x000),
    DN(___,0,0x000),
    DN(___,0,0x000),
    DN(___,0,0x000),
    DN(___,0,0x000),
    DN(___,0,0x000),
    DN(___,0,0x000),
    DN(___,0,0x000),
    DN(___,0,0x000),
    DN(___,0,0x000),
    DN(___,0,0x000),
    DN(___,0,0x000),
    DN(___,0,0x000),
    DN(___,0,0x000),
    DN(___,0,0x000),
    DN(___,0,0x000),
    DN(___,0,0x000),
    DN(___,0,0x000),
    DN(___,0,0x000),
    DN(___,0,0x000),
    DN(___,0,0x000),
    DN(___,0,0x000),
    DN(___,0,0x000),
    DN(___,0,0x000),
    DN(___,0,0x000),
    DN(___,0,0x000),
    DN(___,0,0x000),
    DN(___,0,0x000),
    DN(___,0,0x000),
    DN(___,0,0x000),
    DN(___,0,0x000),
    DN(___,0,0x000),
    DN(___,0,0x000),
    DN(___,0,0x000),
    DN(___,0,0x000),
    DN(___,0,0x000),
    DN(___,0,0x000),
    DN(___,0,0x000),
    DN(___,0,0x000),
    DN(___,0,0x000),
    DN(___,0,0x000),
    DN(___,0,0x000),
    DN(___,0,0x000),
};
static const unsigned char P4_fortress[] = {
    DN(E_6,1,0x000),
    DN(Cs6,1,0x000),
    DN(Gs5,1,0x000),
    DN(G_5,1,0x000),
    DN(Gs5,1,0x000),
    DN(___,0,0x000),
    DN(___,0,0x000),
    DN(___,0,0x000),
    DN(Fs6,1,0x000),
    DN(Ds6,1,0x000),
    DN(Gs5,1,0x000),
    DN(G_5,1,0x000),
    DN(Gs5,1,0x000),
    DN(___,0,0x000),
    DN(___,0,0x000),
    DN(___,0,0x000),
    DN(Gs6,1,0x000),
    DN(Ds6,1,0x000),
    DN(Cs6,1,0x000),
    DN(C_6,1,0x000),
    DN(Cs6,1,0x000),
    DN(E_6,1,0x000),
    DN(Fs6,1,0x000),
    DN(E_6,1,0x000),
    DN(Ds6,1,0x000),
    DN(___,0,0x000),
    DN(Fs6,1,0x000),
    DN(___,0,0x000),
    DN(C_6,1,0x000),
    DN(___,0,0x000),
    DN(Ds6,1,0x000),
    DN(___,0,0x000),
    DN(Ds5,1,0x000),
    DN(___,0,0x000),
    DN(___,0,0x000),
    DN(___,0,0x000),
    DN(___,0,0x000),
    DN(___,0,0x000),
    DN(___,0,0x000),
    DN(___,0,0x000),
    DN(E_6,1,0x000),
    DN(___,0,0x000),
    DN(___,0,0x000),
    DN(___,0,0x000),
    DN(Cs6,1,0x000),
    DN(___,0,0x000),
    DN(___,0,0x000),
    DN(___,0,0x000),
    DN(B_5,1,0x000),
    DN(___,0,0x000),
    DN(___,0,0x000),
    DN(___,0,0x000),
    DN(___,0,0x000),
    DN(___,0,0x000),
    DN(___,0,0x000),
    DN(___,0,0x000),
    DN(Gs5,1,0x000),
    DN(___,0,0x000),
    DN(___,0,0x000),
    DN(___,0,0x000),
    DN(Fs5,1,0x000),
    DN(___,0,0x000),
    DN(___,0,0x000),
    DN(___,0,0x000),
};
static const unsigned char P5_fortress[] = {
    DN(Gs4,1,0x000),
    DN(___,0,0x000),
    DN(B_4,1,0x000),
    DN(___,0,0x000),
    DN(Gs4,1,0x000),
    DN(___,0,0x000),
    DN(E_4,1,0x000),
    DN(___,0,0x000),
    DN(___,0,0xE00),
    DN(___,0,0x000),
    DN(___,0,0x000),
    DN(___,0,0x000),
    DN(Gs5,1,0x000),
    DN(___,0,0x000),
    DN(___,0,0x000),
    DN(___,0,0x000),
    DN(A_5,1,0x000),
    DN(___,0,0x000),
    DN(___,0,0x000),
    DN(___,0,0x000),
    DN(Ds6,1,0x000),
    DN(Gs5,1,0x000),
    DN(Fs5,1,0x000),
    DN(___,0,0x000),
    DN(___,0,0xE00),
    DN(___,0,0x000),
    DN(___,0,0x000),
    DN(___,0,0x000),
    DN(___,0,0x000),
    DN(___,0,0x000),
    DN(___,0,0x000),
    DN(___,0,0x000),
    DN(___,0,0x000),
    DN(___,0,0x000),
    DN(___,0,0x000),
    DN(___,0,0x000),
    DN(E_4,1,0x000),
    DN(___,0,0x000),
    DN(___,1,0x000),
    DN(___,0,0x000),
    DN(___,0,0xE00),
    DN(___,0,0x000),
    DN(___,0,0x000),
    DN(___,0,0x000),
    DN(B_4,1,0x000),
    DN(___,0,0x000),
    DN(___,0,0x000),
    DN(___,0,0x000),
    DN(___,0,0x000),
    DN(___,0,0x000),
    DN(___,0,0x000),
    DN(___,0,0x000),
    DN(___,0,0x000),
    DN(___,0,0xE00),
    DN(___,0,0x000),
    DN(___,0,0x000),
    DN(E_5,1,0x000),
    DN(___,0,0x000),
    DN(___,0,0x000),
    DN(___,0,0x000),
    DN(Ds6,1,0x000),
    DN(___,0,0x000),
    DN(Fs6,1,0x000),
    DN(___,0,0x000),
};
static const unsigned char P9_fortress[] = {
    DN(E_4,1,0x000),
    DN(___,0,0x000),
    DN(Cs4,1,0x000),
    DN(___,0,0x000),
    DN(Gs3,1,0x000),
    DN(___,0,0x000),
    DN(A_3,1,0x000),
    DN(___,0,0x000),
    DN(Gs3,1,0x000),
    DN(___,0,0x000),
    DN(___,0,0xE00),
    DN(___,0,0x000),
    DN(Fs4,1,0x000),
    DN(___,0,0x000),
    DN(___,0,0xE00),
    DN(___,0,0x000),
    DN(E_4,1,0x000),
    DN(___,0,0x000),
    DN(Fs4,1,0x000),
    DN(___,0,0x000),
    DN(E_4,1,0x000),
    DN(___,0,0x000),
    DN(Cs4,1,0x000),
    DN(___,0,0x000),
    DN(Ds4,1,0x000),
    DN(___,0,0x000),
    DN(___,0,0xE00),
    DN(___,0,0x000),
    DN(Ds4,1,0x000),
    DN(___,0,0x000),
    DN(E_4,1,0x000),
    DN(___,0,0x000),
    DN(Ds4,1,0x000),
    DN(___,0,0x000),
    DN(Cs4,1,0x000),
    DN(___,0,0x000),
    DN(Ds4,1,0x000),
    DN(___,0,0x000),
    DN(Gs4,1,0x000),
    DN(___,0,0x000),
    DN(A_4,1,0x000),
    DN(___,0,0x000),
    DN(Gs4,1,0x000),
    DN(___,0,0x000),
    DN(Cs4,1,0x000),
    DN(___,0,0x000),
    DN(Ds4,1,0x000),
    DN(___,0,0x000),
    DN(E_4,1,0x000),
    DN(___,0,0x000),
    DN(Gs4,1,0x000),
    DN(___,0,0x000),
    DN(Cs4,1,0x000),
    DN(___,0,0x000),
    DN(Ds4,1,0x000),
    DN(___,0,0x000),
    DN(E_4,1,0x000),
    DN(___,0,0x000),
    DN(___,0,0x000),
    DN(___,0,0x000),
    DN(Gs5,1,0x000),
    DN(___,0,0x000),
    DN(___,0,0x000),
    DN(___,0,0x000),
};
static const unsigned char P10_fortress[] = {
    DN(Cs4,11,0x000),
    DN(___,0,0x000),
    DN(___,0,0x000),
    DN(___,0,0x000),
    DN(E_4,11,0x000),
    DN(___,0,0x000),
    DN(___,0,0x000),
    DN(___,0,0x000),
    DN(Fs4,11,0x000),
    DN(___,0,0x000),
    DN(___,0,0x000),
    DN(___,0,0x000),
    DN(Gs4,11,0x000),
    DN(___,0,0x000),
    DN(___,0,0x000),
    DN(___,0,0x000),
    DN(E_4,11,0x000),
    DN(___,0,0x000),
    DN(___,0,0x000),
    DN(___,0,0x000),
    DN(Fs4,11,0x000),
    DN(___,0,0x000),
    DN(___,0,0x000),
    DN(___,0,0x000),
    DN(Cs4,11,0x000),
    DN(___,0,0x000),
    DN(___,0,0x000),
    DN(___,0,0x000),
    DN(Fs4,11,0x000),
    DN(___,0,0x000),
    DN(___,0,0x000),
    DN(___,0,0x000),
    DN(Ds4,11,0x000),
    DN(___,0,0x000),
    DN(___,0,0x000),
    DN(___,0,0x000),
    DN(F_4,11,0x000),
    DN(___,0,0x000),
    DN(___,0,0x000),
    DN(___,0,0x000),
    DN(Fs4,11,0x000),
    DN(___,0,0x000),
    DN(___,0,0x000),
    DN(___,0,0x000),
    DN(___,0,0x000),
    DN(___,0,0x000),
    DN(___,0,0x000),
    DN(___,0,0x000),
    DN(B_4,11,0x000),
    DN(___,0,0x000),
    DN(___,0,0x000),
    DN(___,0,0x000),
    DN(A_4,11,0x000),
    DN(___,0,0x000),
    DN(___,0,0x000),
    DN(___,0,0x000),
    DN(Gs4,11,0x000),
    DN(___,0,0x000),
    DN(___,0,0x000),
    DN(___,0,0x000),
    DN(Ds5,11,0x000),
    DN(___,0,0x000),
    DN(___,0,0x000),
    DN(___,0,0x000),
};

static const unsigned char itNoiseSP1_fortress[] = {
    DN(___,0,0x000),
    DN(36,0,0x000),
    DN(36,0,0x000),
    DN(36,0,0x000),
    DN(36,0,0x000),
    DN(36,0,0x000),
    DN(36,7,0x000),
    DN(___,0,0x000),
    DN(___,0,0x000),
    DN(___,0,0x000),
    DN(___,0,0x000),
    DN(___,0,0x000),
    DN(___,0,0x000),
    DN(___,0,0x000),
    DN(___,0,0x000),
    DN(___,0,0x000),
    DN(___,0,0x000),
    DN(___,0,0x000),
    DN(___,0,0x000),
    DN(___,0,0x000),
    DN(___,0,0x000),
    DN(___,0,0x000),
    DN(___,0,0x000),
    DN(___,0,0x000),
    DN(___,0,0x000),
    DN(___,0,0x000),
    DN(___,0,0x000),
    DN(___,0,0x000),
    DN(___,0,0x000),
    DN(___,0,0x000),
    DN(___,0,0x000),
    DN(___,1,0x000),
};
static const unsigned char itNoiseSP2_fortress[] = {
    DN(___,0,0x000),
    DN(36,0,0x000),
    DN(36,0,0x000),
    DN(36,0,0x000),
    DN(36,0,0x000),
    DN(36,0,0x000),
    DN(36,7,0x000),
    DN(___,0,0x000),
    DN(___,0,0x000),
    DN(___,0,0x000),
    DN(___,0,0x000),
    DN(___,0,0x000),
    DN(___,0,0x000),
    DN(___,0,0x000),
    DN(___,0,0x000),
    DN(___,0,0x000),
    DN(___,0,0x000),
    DN(___,0,0x000),
    DN(___,0,0x000),
    DN(___,0,0x000),
    DN(___,0,0x000),
    DN(___,0,0x000),
    DN(___,0,0x000),
    DN(___,0,0x000),
    DN(___,0,0x000),
    DN(___,0,0x000),
    DN(___,0,0x000),
    DN(___,0,0x000),
    DN(___,0,0x000),
    DN(___,0,0x000),
    DN(___,0,0x000),
    DN(___,1,0x000),
};
static const unsigned char itNoiseSP3_fortress[] = {
    DN(___,0,0x000),
    DN(36,0,0x000),
    DN(36,0,0x000),
    DN(36,0,0x000),
    DN(36,0,0x000),
    DN(36,0,0x000),
    DN(36,7,0x000),
    DN(___,0,0x000),
    DN(___,0,0x000),
    DN(___,0,0x000),
    DN(___,0,0x000),
    DN(___,0,0x000),
    DN(___,0,0x000),
    DN(___,0,0x000),
    DN(___,0,0x000),
    DN(___,0,0x000),
    DN(___,0,0x000),
    DN(___,0,0x000),
    DN(___,0,0x000),
    DN(___,0,0x000),
    DN(___,0,0x000),
    DN(___,0,0x000),
    DN(___,0,0x000),
    DN(___,0,0x000),
    DN(___,0,0x000),
    DN(___,0,0x000),
    DN(___,0,0x000),
    DN(___,0,0x000),
    DN(___,0,0x000),
    DN(___,0,0x000),
    DN(___,0,0x000),
    DN(___,1,0x000),
};
static const unsigned char itNoiseSP4_fortress[] = {
    DN(___,0,0x000),
    DN(36,0,0x000),
    DN(36,0,0x000),
    DN(36,0,0x000),
    DN(36,0,0x000),
    DN(36,0,0x000),
    DN(36,7,0x000),
    DN(___,0,0x000),
    DN(___,0,0x000),
    DN(___,0,0x000),
    DN(___,0,0x000),
    DN(___,0,0x000),
    DN(___,0,0x000),
    DN(___,0,0x000),
    DN(___,0,0x000),
    DN(___,0,0x000),
    DN(___,0,0x000),
    DN(___,0,0x000),
    DN(___,0,0x000),
    DN(___,0,0x000),
    DN(___,0,0x000),
    DN(___,0,0x000),
    DN(___,0,0x000),
    DN(___,0,0x000),
    DN(___,0,0x000),
    DN(___,0,0x000),
    DN(___,0,0x000),
    DN(___,0,0x000),
    DN(___,0,0x000),
    DN(___,0,0x000),
    DN(___,0,0x000),
    DN(___,1,0x000),
};
static const unsigned char itNoiseSP5_fortress[] = {
    DN(___,0,0x000),
    DN(36,0,0x000),
    DN(36,0,0x000),
    DN(36,0,0x000),
    DN(36,0,0x000),
    DN(36,0,0x000),
    DN(36,7,0x000),
    DN(___,0,0x000),
    DN(___,0,0x000),
    DN(___,0,0x000),
    DN(___,0,0x000),
    DN(___,0,0x000),
    DN(___,0,0x000),
    DN(___,0,0x000),
    DN(___,0,0x000),
    DN(___,0,0x000),
    DN(___,0,0x000),
    DN(___,0,0x000),
    DN(___,0,0x000),
    DN(___,0,0x000),
    DN(___,0,0x000),
    DN(___,0,0x000),
    DN(___,0,0x000),
    DN(___,0,0x000),
    DN(___,0,0x000),
    DN(___,0,0x000),
    DN(___,0,0x000),
    DN(___,0,0x000),
    DN(___,0,0x000),
    DN(___,0,0x000),
    DN(___,0,0x000),
    DN(___,1,0x000),
};
static const unsigned char itNoiseSP6_fortress[] = {
    DN(___,0,0x000),
    DN(36,0,0x000),
    DN(36,0,0x000),
    DN(36,0,0x000),
    DN(36,0,0x000),
    DN(36,0,0x000),
    DN(36,7,0x000),
    DN(___,0,0x000),
    DN(___,0,0x000),
    DN(___,0,0x000),
    DN(___,0,0x000),
    DN(___,0,0x000),
    DN(___,0,0x000),
    DN(___,0,0x000),
    DN(___,0,0x000),
    DN(___,0,0x000),
    DN(___,0,0x000),
    DN(___,0,0x000),
    DN(___,0,0x000),
    DN(___,0,0x000),
    DN(___,0,0x000),
    DN(___,0,0x000),
    DN(___,0,0x000),
    DN(___,0,0x000),
    DN(___,0,0x000),
    DN(___,0,0x000),
    DN(___,0,0x000),
    DN(___,0,0x000),
    DN(___,0,0x000),
    DN(___,0,0x000),
    DN(___,0,0x000),
    DN(___,1,0x000),
};
static const unsigned char itNoiseSP7_fortress[] = {
    DN(___,0,0x000),
    DN(36,0,0x000),
    DN(36,0,0x000),
    DN(36,0,0x000),
    DN(36,0,0x000),
    DN(36,0,0x000),
    DN(36,7,0x000),
    DN(___,0,0x000),
    DN(___,0,0x000),
    DN(___,0,0x000),
    DN(___,0,0x000),
    DN(___,0,0x000),
    DN(___,0,0x000),
    DN(___,0,0x000),
    DN(___,0,0x000),
    DN(___,0,0x000),
    DN(___,0,0x000),
    DN(___,0,0x000),
    DN(___,0,0x000),
    DN(___,0,0x000),
    DN(___,0,0x000),
    DN(___,0,0x000),
    DN(___,0,0x000),
    DN(___,0,0x000),
    DN(___,0,0x000),
    DN(___,0,0x000),
    DN(___,0,0x000),
    DN(___,0,0x000),
    DN(___,0,0x000),
    DN(___,0,0x000),
    DN(___,0,0x000),
    DN(___,1,0x000),
};
static const unsigned char itNoiseSP8_fortress[] = {
    DN(___,0,0x000),
    DN(36,0,0x000),
    DN(36,0,0x000),
    DN(36,0,0x000),
    DN(36,0,0x000),
    DN(36,0,0x000),
    DN(36,7,0x000),
    DN(___,0,0x000),
    DN(___,0,0x000),
    DN(___,0,0x000),
    DN(___,0,0x000),
    DN(___,0,0x000),
    DN(___,0,0x000),
    DN(___,0,0x000),
    DN(___,0,0x000),
    DN(___,0,0x000),
    DN(___,0,0x000),
    DN(___,0,0x000),
    DN(___,0,0x000),
    DN(___,0,0x000),
    DN(___,0,0x000),
    DN(___,0,0x000),
    DN(___,0,0x000),
    DN(___,0,0x000),
    DN(___,0,0x000),
    DN(___,0,0x000),
    DN(___,0,0x000),
    DN(___,0,0x000),
    DN(___,0,0x000),
    DN(___,0,0x000),
    DN(___,0,0x000),
    DN(___,1,0x000),
};
static const unsigned char itNoiseSP9_fortress[] = {
    DN(___,0,0x000),
    DN(36,0,0x000),
    DN(36,0,0x000),
    DN(36,0,0x000),
    DN(36,0,0x000),
    DN(36,0,0x000),
    DN(36,7,0x000),
    DN(___,0,0x000),
    DN(___,0,0x000),
    DN(___,0,0x000),
    DN(___,0,0x000),
    DN(___,0,0x000),
    DN(___,0,0x000),
    DN(___,0,0x000),
    DN(___,0,0x000),
    DN(___,0,0x000),
    DN(___,0,0x000),
    DN(___,0,0x000),
    DN(___,0,0x000),
    DN(___,0,0x000),
    DN(___,0,0x000),
    DN(___,0,0x000),
    DN(___,0,0x000),
    DN(___,0,0x000),
    DN(___,0,0x000),
    DN(___,0,0x000),
    DN(___,0,0x000),
    DN(___,0,0x000),
    DN(___,0,0x000),
    DN(___,0,0x000),
    DN(___,0,0x000),
    DN(___,1,0x000),
};
static const unsigned char itNoiseSP10_fortress[] = {
    DN(___,0,0x000),
    DN(36,0,0x000),
    DN(36,0,0x000),
    DN(36,0,0x000),
    DN(36,0,0x000),
    DN(36,0,0x000),
    DN(36,7,0x000),
    DN(___,0,0x000),
    DN(___,0,0x000),
    DN(___,0,0x000),
    DN(___,0,0x000),
    DN(___,0,0x000),
    DN(___,0,0x000),
    DN(___,0,0x000),
    DN(___,0,0x000),
    DN(___,0,0x000),
    DN(___,0,0x000),
    DN(___,0,0x000),
    DN(___,0,0x000),
    DN(___,0,0x000),
    DN(___,0,0x000),
    DN(___,0,0x000),
    DN(___,0,0x000),
    DN(___,0,0x000),
    DN(___,0,0x000),
    DN(___,0,0x000),
    DN(___,0,0x000),
    DN(___,0,0x000),
    DN(___,0,0x000),
    DN(___,0,0x000),
    DN(___,0,0x000),
    DN(___,1,0x000),
};
static const unsigned char itNoiseSP11_fortress[] = {
    DN(___,0,0x000),
    DN(36,0,0x000),
    DN(36,0,0x000),
    DN(36,0,0x000),
    DN(36,0,0x000),
    DN(36,0,0x000),
    DN(36,7,0x000),
    DN(___,0,0x000),
    DN(___,0,0x000),
    DN(___,0,0x000),
    DN(___,0,0x000),
    DN(___,0,0x000),
    DN(___,0,0x000),
    DN(___,0,0x000),
    DN(___,0,0x000),
    DN(___,0,0x000),
    DN(___,0,0x000),
    DN(___,0,0x000),
    DN(___,0,0x000),
    DN(___,0,0x000),
    DN(___,0,0x000),
    DN(___,0,0x000),
    DN(___,0,0x000),
    DN(___,0,0x000),
    DN(___,0,0x000),
    DN(___,0,0x000),
    DN(___,0,0x000),
    DN(___,0,0x000),
    DN(___,0,0x000),
    DN(___,0,0x000),
    DN(___,0,0x000),
    DN(___,1,0x000),
};
static const unsigned char itNoiseSP12_fortress[] = {
    DN(___,0,0x000),
    DN(36,0,0x000),
    DN(36,0,0x000),
    DN(36,0,0x000),
    DN(36,0,0x000),
    DN(36,0,0x000),
    DN(36,7,0x000),
    DN(___,0,0x000),
    DN(___,0,0x000),
    DN(___,0,0x000),
    DN(___,0,0x000),
    DN(___,0,0x000),
    DN(___,0,0x000),
    DN(___,0,0x000),
    DN(___,0,0x000),
    DN(___,0,0x000),
    DN(___,0,0x000),
    DN(___,0,0x000),
    DN(___,0,0x000),
    DN(___,0,0x000),
    DN(___,0,0x000),
    DN(___,0,0x000),
    DN(___,0,0x000),
    DN(___,0,0x000),
    DN(___,0,0x000),
    DN(___,0,0x000),
    DN(___,0,0x000),
    DN(___,0,0x000),
    DN(___,0,0x000),
    DN(___,0,0x000),
    DN(___,0,0x000),
    DN(___,1,0x000),
};
static const unsigned char itNoiseSP13_fortress[] = {
    DN(___,0,0x000),
    DN(36,0,0x000),
    DN(36,0,0x000),
    DN(36,0,0x000),
    DN(36,0,0x000),
    DN(36,0,0x000),
    DN(36,7,0x000),
    DN(___,0,0x000),
    DN(___,0,0x000),
    DN(___,0,0x000),
    DN(___,0,0x000),
    DN(___,0,0x000),
    DN(___,0,0x000),
    DN(___,0,0x000),
    DN(___,0,0x000),
    DN(___,0,0x000),
    DN(___,0,0x000),
    DN(___,0,0x000),
    DN(___,0,0x000),
    DN(___,0,0x000),
    DN(___,0,0x000),
    DN(___,0,0x000),
    DN(___,0,0x000),
    DN(___,0,0x000),
    DN(___,0,0x000),
    DN(___,0,0x000),
    DN(___,0,0x000),
    DN(___,0,0x000),
    DN(___,0,0x000),
    DN(___,0,0x000),
    DN(___,0,0x000),
    DN(___,1,0x000),
};
static const unsigned char itNoiseSP14_fortress[] = {
    DN(___,0,0x000),
    DN(36,0,0x000),
    DN(36,0,0x000),
    DN(36,0,0x000),
    DN(36,0,0x000),
    DN(36,0,0x000),
    DN(36,7,0x000),
    DN(___,0,0x000),
    DN(___,0,0x000),
    DN(___,0,0x000),
    DN(___,0,0x000),
    DN(___,0,0x000),
    DN(___,0,0x000),
    DN(___,0,0x000),
    DN(___,0,0x000),
    DN(___,0,0x000),
    DN(___,0,0x000),
    DN(___,0,0x000),
    DN(___,0,0x000),
    DN(___,0,0x000),
    DN(___,0,0x000),
    DN(___,0,0x000),
    DN(___,0,0x000),
    DN(___,0,0x000),
    DN(___,0,0x000),
    DN(___,0,0x000),
    DN(___,0,0x000),
    DN(___,0,0x000),
    DN(___,0,0x000),
    DN(___,0,0x000),
    DN(___,0,0x000),
    DN(___,1,0x000),
};
static const unsigned char itNoiseSP15_fortress[] = {
    DN(___,0,0x000),
    DN(36,0,0x000),
    DN(36,0,0x000),
    DN(36,0,0x000),
    DN(36,0,0x000),
    DN(36,0,0x000),
    DN(36,7,0x000),
    DN(___,0,0x000),
    DN(___,0,0x000),
    DN(___,0,0x000),
    DN(___,0,0x000),
    DN(___,0,0x000),
    DN(___,0,0x000),
    DN(___,0,0x000),
    DN(___,0,0x000),
    DN(___,0,0x000),
    DN(___,0,0x000),
    DN(___,0,0x000),
    DN(___,0,0x000),
    DN(___,0,0x000),
    DN(___,0,0x000),
    DN(___,0,0x000),
    DN(___,0,0x000),
    DN(___,0,0x000),
    DN(___,0,0x000),
    DN(___,0,0x000),
    DN(___,0,0x000),
    DN(___,0,0x000),
    DN(___,0,0x000),
    DN(___,0,0x000),
    DN(___,0,0x000),
    DN(___,1,0x000),
};
static const unsigned char* const order1_fortress[] = {P0_fortress,P0_fortress,P4_fortress};
static const unsigned char* const order2_fortress[] = {P1_fortress,P5_fortress,P9_fortress};
static const unsigned char* const order3_fortress[] = {P2_fortress,P2_fortress,P10_fortress};
static const unsigned char* const order4_fortress[] = {P3_fortress,P3_fortress,P3_fortress};

static const hUGEDutyInstr_t duty_instruments_fortress[] = {
    {8,0,240,0,128},
    {8,64,240,0,128},
    {8,64,247,0,128},
    {8,192,240,0,128},
    {8,0,241,0,128},
    {8,64,241,0,128},
    {8,128,241,0,128},
    {8,192,241,0,128},
    {8,128,240,0,128},
    {8,128,240,0,128},
    {8,128,240,0,128},
    {8,128,240,0,128},
    {8,128,240,0,128},
    {8,128,240,0,128},
    {8,128,240,0,128},
};
static const hUGEWaveInstr_t wave_instruments_fortress[] = {
    {0,32,0,0,128},
    {0,32,1,0,128},
    {0,32,2,0,128},
    {0,32,3,0,128},
    {0,32,4,0,128},
    {0,32,5,0,128},
    {0,32,6,0,128},
    {0,32,7,0,128},
    {0,32,8,0,128},
    {55,32,9,0,192},
    {0,32,10,0,128},
    {0,32,11,0,128},
    {0,32,12,0,128},
    {0,32,13,0,128},
    {0,32,14,0,128},
};
static const hUGENoiseInstr_t noise_instruments_fortress[] = {
    {240,itNoiseSP1_fortress,0,0,0},
    {240,itNoiseSP2_fortress,0,0,0},
    {240,itNoiseSP3_fortress,0,0,0},
    {240,itNoiseSP4_fortress,0,0,0},
    {240,itNoiseSP5_fortress,0,0,0},
    {240,itNoiseSP6_fortress,0,0,0},
    {240,itNoiseSP7_fortress,0,0,0},
    {240,itNoiseSP8_fortress,0,0,0},
    {240,itNoiseSP9_fortress,0,0,0},
    {240,itNoiseSP10_fortress,0,0,0},
    {240,itNoiseSP11_fortress,0,0,0},
    {240,itNoiseSP12_fortress,0,0,0},
    {240,itNoiseSP13_fortress,0,0,0},
    {240,itNoiseSP14_fortress,0,0,0},
    {240,itNoiseSP15_fortress,0,0,0},
};

static const unsigned char waves_fortress[] = {
    0,0,255,255,255,255,255,255,255,255,255,255,255,255,255,255,
    0,0,0,0,255,255,255,255,255,255,255,255,255,255,255,255,
    0,0,0,0,0,0,0,0,255,255,255,255,255,255,255,255,
    0,0,0,0,0,0,0,0,0,0,0,0,255,255,255,255,
    0,1,18,35,52,69,86,103,120,137,154,171,188,205,222,239,
    254,220,186,152,118,84,50,16,18,52,86,120,154,188,222,255,
    122,205,219,117,33,19,104,189,220,151,65,1,71,156,221,184,
    15,15,15,15,15,15,15,15,15,15,15,15,15,15,15,15,
    254,252,250,248,246,244,242,240,242,244,246,248,250,252,254,255,
    254,221,204,187,170,153,136,119,138,189,241,36,87,138,189,238,
    132,17,97,237,87,71,90,173,206,163,23,121,221,32,3,71,
    39,52,96,119,128,149,104,68,181,25,64,12,50,214,198,9,
    23,133,88,54,234,179,211,104,17,141,94,26,235,182,195,7,
    82,181,114,66,197,98,37,16,80,8,105,91,10,164,170,153,
    225,179,86,133,192,87,235,161,18,90,100,135,193,53,144,8,
    60,97,215,121,5,16,109,158,228,133,126,186,128,231,119,99,
};

const hUGESong_t fortress_bgm = {12, &order_cnt_fortress, order1_fortress, order2_fortress, order3_fortress,order4_fortress, duty_instruments_fortress, wave_instruments_fortress, noise_instruments_fortress, NULL, waves_fortress};
