#include "hUGEDriver.h"
#include <stddef.h>

static const unsigned char order_cnt_menu = 8;

static const unsigned char P0_menu[] = {
    DN(Ds4,6,0xF08),
    DN(___,0,0x000),
    DN(D_4,6,0x000),
    DN(Ds4,6,0x000),
    DN(F_4,6,0x000),
    DN(D_4,6,0x000),
    DN(Ds4,6,0x000),
    DN(___,0,0x000),
    DN(Ds4,6,0x000),
    DN(F_4,6,0x000),
    DN(G_4,6,0x000),
    DN(Ds4,6,0x000),
    DN(Gs4,6,0x000),
    DN(___,0,0x000),
    DN(G_4,6,0x000),
    DN(___,0,0x000),
    DN(Ds4,6,0x000),
    DN(___,0,0x000),
    DN(D_4,6,0x000),
    DN(Ds4,6,0x000),
    DN(F_4,6,0x000),
    DN(D_4,6,0x000),
    DN(Ds4,6,0x000),
    DN(___,0,0x000),
    DN(Ds4,6,0x000),
    DN(F_4,6,0x000),
    DN(G_4,6,0x000),
    DN(Ds4,6,0x000),
    DN(C_5,6,0x000),
    DN(___,0,0x000),
    DN(As4,6,0x000),
    DN(___,0,0x000),
    DN(Ds5,6,0x000),
    DN(___,0,0x000),
    DN(D_5,6,0x000),
    DN(C_5,6,0x000),
    DN(___,0,0x000),
    DN(C_5,6,0x000),
    DN(D_5,6,0x000),
    DN(___,0,0x000),
    DN(C_5,6,0x000),
    DN(As4,6,0x000),
    DN(C_5,6,0x000),
    DN(D_5,6,0x000),
    DN(Ds5,6,0x000),
    DN(___,0,0x000),
    DN(G_4,6,0x000),
    DN(___,0,0x000),
    DN(As4,6,0x000),
    DN(___,0,0x000),
    DN(D_4,6,0x000),
    DN(___,0,0x000),
    DN(Ds4,6,0x000),
    DN(D_4,6,0x000),
    DN(Ds4,6,0x000),
    DN(G_4,6,0x000),
    DN(Ds4,6,0x000),
    DN(___,0,0x000),
    DN(As4,6,0x000),
    DN(___,0,0x000),
    DN(F_5,6,0x000),
    DN(___,0,0x000),
    DN(Ds5,6,0x000),
    DN(___,0,0x000),
};
static const unsigned char P1_menu[] = {
    DN(Ds5,6,0xC09),
    DN(___,0,0x000),
    DN(Ds5,6,0xC09),
    DN(___,0,0x000),
    DN(Ds5,6,0xC09),
    DN(___,0,0x000),
    DN(Ds5,6,0xC09),
    DN(___,0,0x000),
    DN(Ds5,6,0xC09),
    DN(___,0,0x000),
    DN(Ds5,6,0xC09),
    DN(___,0,0x000),
    DN(Ds5,6,0xC09),
    DN(___,0,0x000),
    DN(As5,6,0xC09),
    DN(___,0,0x000),
    DN(Ds5,6,0xC09),
    DN(___,0,0x000),
    DN(Ds5,6,0xC09),
    DN(___,0,0x000),
    DN(Ds5,6,0xC09),
    DN(___,0,0x000),
    DN(Ds5,6,0xC09),
    DN(___,0,0x000),
    DN(Ds5,6,0xC09),
    DN(___,0,0x000),
    DN(Ds5,6,0xC09),
    DN(___,0,0x000),
    DN(Ds5,6,0xC09),
    DN(___,0,0x000),
    DN(Ds5,6,0xC09),
    DN(___,0,0x000),
    DN(Gs6,6,0xC09),
    DN(___,0,0x000),
    DN(Gs6,6,0xC09),
    DN(___,0,0x000),
    DN(Gs6,6,0xC09),
    DN(___,0,0x000),
    DN(Gs6,6,0xC09),
    DN(___,0,0x000),
    DN(G_6,6,0xC09),
    DN(___,0,0x000),
    DN(G_6,6,0xC09),
    DN(___,0,0x000),
    DN(G_6,6,0xC09),
    DN(___,0,0x000),
    DN(G_6,6,0xC09),
    DN(___,0,0x000),
    DN(F_6,6,0xC0A),
    DN(___,0,0x000),
    DN(F_6,6,0xC0A),
    DN(___,0,0x000),
    DN(G_6,6,0xC0A),
    DN(___,0,0x000),
    DN(F_6,6,0xC0A),
    DN(___,0,0x000),
    DN(Ds6,6,0xC0A),
    DN(___,0,0x000),
    DN(___,0,0x000),
    DN(___,0,0x000),
    DN(___,0,0x000),
    DN(___,0,0x000),
    DN(___,0,0x000),
    DN(___,0,0x000),
};
static const unsigned char P2_menu[] = {
    DN(___,0,0x000),
    DN(___,0,0x000),
    DN(___,0,0x000),
    DN(___,0,0x000),
    DN(___,0,0x000),
    DN(___,0,0x000),
    DN(___,0,0x000),
    DN(___,0,0x000),
    DN(___,0,0x000),
    DN(___,0,0x000),
    DN(___,0,0x000),
    DN(___,0,0x000),
    DN(___,0,0x000),
    DN(___,0,0x000),
    DN(___,0,0x000),
    DN(___,0,0x000),
    DN(___,0,0x000),
    DN(___,0,0x000),
    DN(___,0,0x000),
    DN(___,0,0x000),
    DN(___,0,0x000),
    DN(___,0,0x000),
    DN(___,0,0x000),
    DN(___,0,0x000),
    DN(___,0,0x000),
    DN(___,0,0x000),
    DN(___,0,0x000),
    DN(___,0,0x000),
    DN(___,0,0x000),
    DN(___,0,0x000),
    DN(___,0,0x000),
    DN(___,0,0x000),
    DN(___,0,0x000),
    DN(___,0,0x000),
    DN(___,0,0x000),
    DN(___,0,0x000),
    DN(___,0,0x000),
    DN(___,0,0x000),
    DN(___,0,0x000),
    DN(___,0,0x000),
    DN(___,0,0x000),
    DN(___,0,0x000),
    DN(___,0,0x000),
    DN(___,0,0x000),
    DN(___,0,0x000),
    DN(___,0,0x000),
    DN(___,0,0x000),
    DN(___,0,0x000),
    DN(___,0,0x000),
    DN(___,0,0x000),
    DN(___,0,0x000),
    DN(___,0,0x000),
    DN(___,0,0x000),
    DN(___,0,0x000),
    DN(___,0,0x000),
    DN(___,0,0x000),
    DN(___,0,0x000),
    DN(___,0,0x000),
    DN(___,0,0x000),
    DN(___,0,0x000),
    DN(___,0,0x000),
    DN(___,0,0x000),
    DN(___,0,0x000),
    DN(___,0,0x000),
};
static const unsigned char P4_menu[] = {
    DN(Ds3,6,0xC09),
    DN(___,0,0x000),
    DN(Ds3,6,0xC09),
    DN(___,0,0x000),
    DN(Ds3,6,0xC09),
    DN(___,0,0x000),
    DN(Ds3,6,0xC09),
    DN(___,0,0x000),
    DN(Ds3,6,0xC09),
    DN(___,0,0x000),
    DN(Ds3,6,0xC09),
    DN(___,0,0x000),
    DN(Ds3,6,0xC09),
    DN(___,0,0x000),
    DN(As3,6,0xC09),
    DN(___,0,0x000),
    DN(Ds3,6,0xC09),
    DN(___,0,0x000),
    DN(Ds3,6,0xC09),
    DN(___,0,0x000),
    DN(Ds3,6,0xC09),
    DN(___,0,0x000),
    DN(Ds3,6,0xC09),
    DN(___,0,0x000),
    DN(Ds3,6,0xC09),
    DN(___,0,0x000),
    DN(Ds3,6,0xC09),
    DN(___,0,0x000),
    DN(Ds3,6,0xC09),
    DN(___,0,0x000),
    DN(Ds3,6,0xC09),
    DN(___,0,0x000),
    DN(Gs4,6,0xC09),
    DN(___,0,0x000),
    DN(Gs4,6,0xC09),
    DN(___,0,0x000),
    DN(Gs4,6,0xC09),
    DN(___,0,0x000),
    DN(Gs4,6,0xC09),
    DN(___,0,0x000),
    DN(G_4,6,0xC09),
    DN(___,0,0x000),
    DN(As4,6,0xC09),
    DN(___,0,0x000),
    DN(G_4,6,0xC09),
    DN(___,0,0x000),
    DN(G_4,6,0xC09),
    DN(___,0,0x000),
    DN(F_4,6,0xC0A),
    DN(___,0,0x000),
    DN(F_4,6,0xC0A),
    DN(___,0,0x000),
    DN(G_4,6,0xC0A),
    DN(___,0,0x000),
    DN(F_4,6,0xC0A),
    DN(___,0,0x000),
    DN(Ds4,6,0xC0A),
    DN(___,0,0x000),
    DN(___,0,0x000),
    DN(___,0,0x000),
    DN(___,0,0x000),
    DN(___,0,0x000),
    DN(___,0,0x000),
    DN(___,0,0x000),
};
static const unsigned char P28_menu[] = {
    DN(Ds5,6,0xF08),
    DN(F_5,6,0x000),
    DN(G_5,6,0x000),
    DN(Ds5,6,0x000),
    DN(Gs5,6,0x000),
    DN(___,0,0x000),
    DN(G_5,6,0x000),
    DN(___,0,0x000),
    DN(As5,6,0x000),
    DN(F_5,6,0x000),
    DN(D_5,6,0x000),
    DN(As5,6,0x000),
    DN(G_5,6,0x000),
    DN(___,0,0x000),
    DN(Ds5,6,0x000),
    DN(___,0,0x000),
    DN(D_5,6,0x000),
    DN(C_5,6,0x000),
    DN(D_5,6,0x000),
    DN(F_5,6,0x000),
    DN(G_5,6,0x000),
    DN(___,0,0x000),
    DN(G_5,6,0x000),
    DN(Gs5,6,0x000),
    DN(As5,6,0x000),
    DN(F_5,6,0x000),
    DN(D_5,6,0x000),
    DN(As5,6,0x000),
    DN(G_5,6,0x000),
    DN(___,0,0x000),
    DN(Ds5,6,0x000),
    DN(___,0,0x000),
    DN(Ds5,6,0x000),
    DN(___,0,0x000),
    DN(D_5,6,0x000),
    DN(___,0,0x000),
    DN(Ds5,6,0x000),
    DN(___,0,0x000),
    DN(F_5,6,0x000),
    DN(___,0,0x000),
    DN(Ds5,6,0x000),
    DN(___,0,0x000),
    DN(G_4,6,0x000),
    DN(___,0,0x000),
    DN(Ds5,6,0x000),
    DN(___,0,0x000),
    DN(G_5,6,0x000),
    DN(___,0,0x000),
    DN(C_6,6,0x000),
    DN(___,0,0x000),
    DN(Gs5,6,0x000),
    DN(___,0,0x000),
    DN(F_5,6,0x000),
    DN(___,0,0x000),
    DN(C_5,6,0x000),
    DN(___,0,0x000),
    DN(Ds5,6,0x000),
    DN(___,0,0x000),
    DN(D_5,6,0x000),
    DN(Ds5,6,0x000),
    DN(E_5,6,0x000),
    DN(F_5,6,0x000),
    DN(Fs5,6,0x000),
    DN(Gs5,6,0x000),
};
static const unsigned char P32_menu[] = {
    DN(As5,6,0x000),
    DN(___,0,0x000),
    DN(As4,6,0x000),
    DN(D_5,6,0x000),
    DN(F_5,6,0x000),
    DN(G_5,6,0x000),
    DN(Gs5,6,0x000),
    DN(As5,6,0x000),
    DN(Ds5,6,0x000),
    DN(___,0,0x000),
    DN(As4,6,0x000),
    DN(D_5,6,0x000),
    DN(Ds5,6,0x000),
    DN(F_5,6,0x000),
    DN(G_5,6,0x000),
    DN(Gs5,6,0x000),
    DN(D_6,6,0x000),
    DN(___,0,0x000),
    DN(As4,6,0x000),
    DN(D_5,6,0x000),
    DN(F_5,6,0x000),
    DN(G_5,6,0x000),
    DN(Gs5,6,0x000),
    DN(As5,6,0x000),
    DN(Ds6,6,0x000),
    DN(___,0,0x000),
    DN(D_5,6,0x000),
    DN(Ds5,6,0x000),
    DN(F_5,6,0x000),
    DN(G_5,6,0x000),
    DN(Gs5,6,0x000),
    DN(As5,6,0x000),
    DN(F_6,6,0x000),
    DN(___,0,0x000),
    DN(As4,6,0x000),
    DN(D_5,6,0x000),
    DN(F_5,6,0x000),
    DN(G_5,6,0x000),
    DN(Gs5,6,0x000),
    DN(As5,6,0x000),
    DN(Ds6,6,0x000),
    DN(___,0,0x000),
    DN(F_6,6,0x000),
    DN(___,0,0x000),
    DN(Ds6,6,0x000),
    DN(___,0,0x000),
    DN(D_6,6,0x000),
    DN(___,0,0x000),
    DN(C_6,6,0x000),
    DN(___,0,0x000),
    DN(D_6,6,0x000),
    DN(___,0,0x000),
    DN(Ds6,6,0x000),
    DN(___,0,0x000),
    DN(F_6,6,0x000),
    DN(___,0,0x000),
    DN(Ds6,6,0x000),
    DN(As5,6,0x000),
    DN(F_5,6,0x000),
    DN(As5,6,0x000),
    DN(Ds5,6,0x000),
    DN(___,0,0x000),
    DN(D_5,6,0x000),
    DN(___,0,0x000),
};
static const unsigned char P33_menu[] = {
    DN(D_4,6,0x000),
    DN(___,0,0x000),
    DN(___,0,0x000),
    DN(___,0,0x000),
    DN(F_4,6,0x000),
    DN(___,0,0x000),
    DN(___,0,0x000),
    DN(___,0,0x000),
    DN(Ds4,6,0x000),
    DN(___,0,0x000),
    DN(___,0,0x000),
    DN(___,0,0x000),
    DN(F_4,6,0x000),
    DN(___,0,0x000),
    DN(___,0,0x000),
    DN(___,0,0x000),
    DN(Gs4,6,0x000),
    DN(___,0,0x000),
    DN(___,0,0x000),
    DN(___,0,0x000),
    DN(___,0,0x000),
    DN(___,0,0x000),
    DN(As4,6,0x000),
    DN(___,0,0x000),
    DN(Ds4,6,0x000),
    DN(___,0,0x000),
    DN(___,0,0x000),
    DN(___,0,0x000),
    DN(___,0,0x000),
    DN(___,0,0x000),
    DN(F_4,6,0x000),
    DN(Gs4,6,0x000),
    DN(F_5,6,0x000),
    DN(___,0,0x000),
    DN(___,0,0x000),
    DN(___,0,0x000),
    DN(___,0,0x000),
    DN(___,0,0x000),
    DN(As4,6,0x000),
    DN(___,0,0x000),
    DN(Ds3,6,0x000),
    DN(___,0,0x000),
    DN(G_3,6,0x000),
    DN(___,0,0x000),
    DN(As3,6,0x000),
    DN(___,0,0x000),
    DN(___,0,0x000),
    DN(___,0,0x000),
    DN(___,0,0x000),
    DN(___,0,0x000),
    DN(___,0,0x000),
    DN(___,0,0x000),
    DN(F_5,6,0x000),
    DN(Fs5,6,0x000),
    DN(G_5,6,0x000),
    DN(___,0,0x000),
    DN(Ds5,6,0x000),
    DN(___,0,0x000),
    DN(___,0,0x000),
    DN(___,0,0x000),
    DN(___,0,0x000),
    DN(___,0,0x000),
    DN(___,0,0x000),
    DN(___,0,0x000),
};
static const unsigned char P36_menu[] = {
    DN(Ds5,6,0xF08),
    DN(As4,6,0x000),
    DN(Ds5,6,0x000),
    DN(Fs5,6,0x000),
    DN(___,0,0x000),
    DN(___,0,0x000),
    DN(Ds5,6,0x000),
    DN(___,0,0x000),
    DN(D_5,6,0x000),
    DN(As4,6,0x000),
    DN(D_5,6,0x000),
    DN(F_5,6,0x000),
    DN(___,0,0x000),
    DN(___,0,0x000),
    DN(F_5,6,0x000),
    DN(G_5,6,0x000),
    DN(Gs5,6,0x000),
    DN(F_5,6,0x000),
    DN(D_5,6,0x000),
    DN(F_5,6,0x000),
    DN(Gs5,6,0x000),
    DN(___,0,0x000),
    DN(___,0,0x000),
    DN(As5,6,0x000),
    DN(Fs5,6,0x000),
    DN(As5,6,0x000),
    DN(F_5,6,0x000),
    DN(___,0,0x000),
    DN(Ds5,6,0x000),
    DN(___,0,0x000),
    DN(Gs5,6,0x000),
    DN(As5,6,0x000),
    DN(B_5,6,0x000),
    DN(___,0,0x000),
    DN(Ds5,6,0x000),
    DN(___,0,0x000),
    DN(Cs6,6,0x000),
    DN(___,0,0x000),
    DN(Ds6,6,0x000),
    DN(___,0,0x000),
    DN(As5,6,0x000),
    DN(___,0,0x000),
    DN(Ds5,6,0x000),
    DN(___,0,0x000),
    DN(B_5,6,0x000),
    DN(___,0,0x000),
    DN(As5,6,0x000),
    DN(___,0,0x000),
    DN(Gs5,6,0x000),
    DN(As5,6,0x000),
    DN(Gs5,6,0x000),
    DN(As5,6,0x000),
    DN(Fs5,6,0x000),
    DN(Gs5,6,0x000),
    DN(Fs5,6,0x000),
    DN(Gs5,6,0x000),
    DN(F_5,6,0x000),
    DN(Gs5,6,0x000),
    DN(D_6,6,0x000),
    DN(Gs5,6,0x000),
    DN(Ds6,6,0x000),
    DN(___,0,0x000),
    DN(D_4,6,0x000),
    DN(___,0,0x000),
};
static const unsigned char P37_menu[] = {
    DN(Ds5,6,0x000),
    DN(___,0,0x000),
    DN(Fs5,6,0x000),
    DN(___,0,0x000),
    DN(Ds5,6,0x000),
    DN(___,0,0x000),
    DN(Fs5,6,0x000),
    DN(___,0,0x000),
    DN(D_5,6,0x000),
    DN(___,0,0x000),
    DN(F_5,6,0x000),
    DN(___,0,0x000),
    DN(D_5,6,0x000),
    DN(___,0,0x000),
    DN(F_5,6,0x000),
    DN(___,0,0x000),
    DN(As5,6,0x000),
    DN(___,0,0x000),
    DN(Gs5,6,0x000),
    DN(___,0,0x000),
    DN(As5,6,0x000),
    DN(___,0,0x000),
    DN(Ds6,6,0x000),
    DN(___,0,0x000),
    DN(___,0,0x000),
    DN(___,0,0x000),
    DN(___,0,0x000),
    DN(___,0,0x000),
    DN(___,0,0x000),
    DN(___,0,0x000),
    DN(___,0,0x000),
    DN(___,0,0x000),
    DN(Gs4,6,0x000),
    DN(___,0,0x000),
    DN(___,0,0x000),
    DN(___,0,0x000),
    DN(___,0,0x000),
    DN(___,0,0x000),
    DN(___,0,0x000),
    DN(___,0,0x000),
    DN(Fs4,6,0x000),
    DN(___,0,0x000),
    DN(___,0,0x000),
    DN(___,0,0x000),
    DN(___,0,0x000),
    DN(___,0,0x000),
    DN(___,0,0x000),
    DN(___,0,0x000),
    DN(F_4,6,0x000),
    DN(___,0,0x000),
    DN(___,0,0x000),
    DN(___,0,0x000),
    DN(D_4,6,0x000),
    DN(___,0,0x000),
    DN(___,0,0x000),
    DN(___,0,0x000),
    DN(F_4,6,0x000),
    DN(___,0,0x000),
    DN(___,0,0x000),
    DN(___,0,0x000),
    DN(___,0,0x000),
    DN(___,0,0x000),
    DN(___,0,0x000),
    DN(___,0,0x000),
};

static const unsigned char* const order1_menu[] = {P0_menu,P28_menu,P32_menu,P36_menu};
static const unsigned char* const order2_menu[] = {P1_menu,P4_menu,P33_menu,P37_menu};
static const unsigned char* const order3_menu[] = {P2_menu,P2_menu,P2_menu,P2_menu};
static const unsigned char* const order4_menu[] = {P2_menu,P2_menu,P2_menu,P2_menu};

static const hUGEDutyInstr_t duty_instruments_menu[] = {
    {8,0,240,0,128},
    {8,64,240,0,128},
    {8,128,240,0,128},
    {8,192,240,0,128},
    {8,0,241,0,128},
    {8,64,241,0,128},
    {8,128,241,0,128},
    {8,192,241,0,128},
    {8,128,240,0,128},
    {8,128,240,0,128},
    {8,128,240,0,128},
    {8,128,240,0,128},
    {8,128,240,0,128},
    {8,128,240,0,128},
    {8,128,240,0,128},
};
static const hUGEWaveInstr_t wave_instruments_menu[] = {
    {0,32,0,0,128},
    {0,32,1,0,128},
    {0,32,2,0,128},
    {0,32,3,0,128},
    {0,32,4,0,128},
    {0,32,5,0,128},
    {0,32,6,0,128},
    {0,32,7,0,128},
    {0,32,8,0,128},
    {0,32,9,0,128},
    {0,32,10,0,128},
    {0,32,11,0,128},
    {0,32,12,0,128},
    {0,32,13,0,128},
    {0,32,14,0,128},
};
static const hUGENoiseInstr_t noise_instruments_menu[] = {
    {240,0,0,0,0},
    {240,0,0,0,0},
    {240,0,0,0,0},
    {240,0,0,0,0},
    {240,0,0,0,0},
    {240,0,0,0,0},
    {240,0,0,0,0},
    {240,0,0,0,0},
    {240,0,0,0,0},
    {240,0,0,0,0},
    {240,0,0,0,0},
    {240,0,0,0,0},
    {240,0,0,0,0},
    {240,0,0,0,0},
    {240,0,0,0,0},
};

static const unsigned char waves_menu[] = {
    0,0,255,255,255,255,255,255,255,255,255,255,255,255,255,255,
    0,0,0,0,255,255,255,255,255,255,255,255,255,255,255,255,
    0,0,0,0,0,0,0,0,255,255,255,255,255,255,255,255,
    0,0,0,0,0,0,0,0,0,0,0,0,255,255,255,255,
    0,1,18,35,52,69,86,103,120,137,154,171,188,205,222,239,
    254,220,186,152,118,84,50,16,18,52,86,120,154,188,222,255,
    122,205,219,117,33,19,104,189,220,151,65,1,71,156,221,184,
    15,15,15,15,15,15,15,15,15,15,15,15,15,15,15,15,
    254,252,250,248,246,244,242,240,242,244,246,248,250,252,254,255,
    254,221,204,187,170,153,136,119,138,189,241,36,87,138,189,238,
    132,17,97,237,87,71,90,173,206,163,23,121,221,32,3,71,
    124,20,91,1,93,173,157,48,74,87,110,10,162,160,132,168,
    89,73,190,160,117,82,34,3,183,23,115,72,121,190,64,50,
    222,189,183,206,213,198,155,16,32,34,216,50,96,129,169,235,
    142,176,94,78,12,51,172,220,66,21,188,200,206,77,84,11,
    210,39,196,66,136,161,217,234,183,194,1,37,163,22,118,156,
};

const hUGESong_t menu_bgm = {7, &order_cnt_menu, order1_menu, order2_menu, order3_menu,order4_menu, duty_instruments_menu, wave_instruments_menu, noise_instruments_menu, NULL, waves_menu};
