#include "../include/hUGEDriver.h"
#include <stddef.h>

static const unsigned char order_cnt_plains = 10;

static const unsigned char P0_plains[] = {
    DN(E_4,6,0x000),
    DN(___,0,0x000),
    DN(C_4,6,0x000),
    DN(___,0,0x000),
    DN(E_4,6,0x000),
    DN(___,0,0x000),
    DN(G_4,6,0x000),
    DN(___,0,0x000),
    DN(C_5,6,0x000),
    DN(___,0,0x000),
    DN(___,0,0x000),
    DN(___,0,0x000),
    DN(B_4,6,0x000),
    DN(___,0,0x000),
    DN(___,0,0x000),
    DN(___,0,0x000),
    DN(D_4,6,0x000),
    DN(___,0,0x000),
    DN(E_4,6,0x000),
    DN(___,0,0x000),
    DN(G_4,6,0x000),
    DN(___,0,0x000),
    DN(F_4,6,0x000),
    DN(___,0,0x000),
    DN(D_4,6,0x000),
    DN(___,0,0x000),
    DN(___,0,0x000),
    DN(___,0,0x000),
    DN(G_4,6,0x000),
    DN(___,0,0x000),
    DN(___,0,0x000),
    DN(___,0,0x000),
    DN(F_4,6,0x000),
    DN(___,0,0x000),
    DN(A_4,6,0x000),
    DN(___,0,0x000),
    DN(E_5,6,0x000),
    DN(___,0,0x000),
    DN(D_5,6,0x000),
    DN(___,0,0x000),
    DN(E_4,6,0x000),
    DN(___,0,0x000),
    DN(G_4,6,0x000),
    DN(___,0,0x000),
    DN(D_5,6,0x000),
    DN(___,0,0x000),
    DN(C_5,6,0x000),
    DN(___,0,0x000),
    DN(E_5,6,0x000),
    DN(___,0,0x000),
    DN(D_5,6,0x000),
    DN(___,0,0x000),
    DN(G_5,6,0x000),
    DN(___,0,0x000),
    DN(B_4,6,0x000),
    DN(___,0,0x000),
    DN(C_5,6,0x000),
    DN(___,0,0x000),
    DN(___,0,0x000),
    DN(___,0,0x000),
    DN(G_4,6,0x000),
    DN(___,0,0x000),
    DN(___,0,0x000),
    DN(___,0,0x000),
};
static const unsigned char P1_plains[] = {
    DN(___,0,0x000),
    DN(___,0,0x000),
    DN(___,0,0x000),
    DN(___,0,0x000),
    DN(___,0,0x000),
    DN(___,0,0x000),
    DN(___,0,0x000),
    DN(___,0,0x000),
    DN(___,0,0x000),
    DN(___,0,0x000),
    DN(___,0,0x000),
    DN(___,0,0x000),
    DN(___,0,0x000),
    DN(___,0,0x000),
    DN(___,0,0x000),
    DN(___,0,0x000),
    DN(___,0,0x000),
    DN(___,0,0x000),
    DN(___,0,0x000),
    DN(___,0,0x000),
    DN(___,0,0x000),
    DN(___,0,0x000),
    DN(___,0,0x000),
    DN(___,0,0x000),
    DN(___,0,0x000),
    DN(___,0,0x000),
    DN(___,0,0x000),
    DN(___,0,0x000),
    DN(___,0,0x000),
    DN(___,0,0x000),
    DN(___,0,0x000),
    DN(___,0,0x000),
    DN(___,0,0x000),
    DN(___,0,0x000),
    DN(___,0,0x000),
    DN(___,0,0x000),
    DN(___,0,0x000),
    DN(___,0,0x000),
    DN(___,0,0x000),
    DN(___,0,0x000),
    DN(___,0,0x000),
    DN(___,0,0x000),
    DN(___,0,0x000),
    DN(___,0,0x000),
    DN(___,0,0x000),
    DN(___,0,0x000),
    DN(___,0,0x000),
    DN(___,0,0x000),
    DN(___,0,0x000),
    DN(___,0,0x000),
    DN(___,0,0x000),
    DN(___,0,0x000),
    DN(___,0,0x000),
    DN(___,0,0x000),
    DN(___,0,0x000),
    DN(___,0,0x000),
    DN(___,0,0x000),
    DN(___,0,0x000),
    DN(___,0,0x000),
    DN(___,0,0x000),
    DN(___,0,0x000),
    DN(___,0,0x000),
    DN(___,0,0x000),
    DN(___,0,0x000),
};
static const unsigned char P2_plains[] = {
    DN(___,0,0x000),
    DN(___,0,0x000),
    DN(___,0,0x000),
    DN(___,0,0x000),
    DN(C_6,6,0xC05),
    DN(___,0,0x000),
    DN(E_6,6,0xC05),
    DN(___,0,0x000),
    DN(C_7,6,0xC05),
    DN(___,0,0x000),
    DN(___,0,0x000),
    DN(___,0,0x000),
    DN(___,0,0x000),
    DN(___,0,0x000),
    DN(___,0,0x000),
    DN(___,0,0x000),
    DN(___,0,0x000),
    DN(___,0,0x000),
    DN(___,0,0x000),
    DN(___,0,0x000),
    DN(___,0,0x000),
    DN(___,0,0x000),
    DN(___,0,0x000),
    DN(___,0,0x000),
    DN(___,0,0x000),
    DN(___,0,0x000),
    DN(D_6,6,0xC05),
    DN(___,0,0x000),
    DN(E_6,6,0xC05),
    DN(___,0,0x000),
    DN(D_6,6,0xC05),
    DN(___,0,0x000),
    DN(C_6,6,0xC05),
    DN(___,0,0x000),
    DN(___,0,0x000),
    DN(___,0,0x000),
    DN(G_6,6,0x000),
    DN(___,0,0x000),
    DN(___,0,0x000),
    DN(___,0,0x000),
    DN(___,0,0x000),
    DN(___,0,0x000),
    DN(___,0,0x000),
    DN(___,0,0x000),
    DN(E_6,6,0x000),
    DN(___,0,0x000),
    DN(___,0,0x000),
    DN(___,0,0x000),
    DN(D_6,6,0x000),
    DN(___,0,0x000),
    DN(___,0,0x000),
    DN(___,0,0x000),
    DN(G_5,6,0x000),
    DN(___,0,0x000),
    DN(___,0,0x000),
    DN(___,0,0x000),
    DN(C_6,6,0x000),
    DN(___,0,0x000),
    DN(___,0,0x000),
    DN(___,0,0x000),
    DN(___,0,0x000),
    DN(___,0,0x000),
    DN(___,0,0x000),
    DN(___,0,0x000),
};
static const unsigned char P4_plains[] = {
    DN(E_4,6,0x000),
    DN(___,0,0x000),
    DN(G_4,6,0x000),
    DN(___,0,0x000),
    DN(B_4,6,0x000),
    DN(___,0,0x000),
    DN(D_5,6,0x000),
    DN(___,0,0x000),
    DN(E_5,6,0x000),
    DN(___,0,0x000),
    DN(D_5,6,0x000),
    DN(___,0,0x000),
    DN(B_4,6,0x000),
    DN(___,0,0x000),
    DN(G_4,6,0x000),
    DN(___,0,0x000),
    DN(Fs5,6,0x000),
    DN(___,0,0x000),
    DN(Ds5,6,0x000),
    DN(___,0,0x000),
    DN(C_5,6,0x000),
    DN(___,0,0x000),
    DN(B_4,6,0x000),
    DN(___,0,0x000),
    DN(E_5,6,0x000),
    DN(___,0,0x000),
    DN(B_4,6,0x000),
    DN(___,0,0x000),
    DN(G_4,6,0x000),
    DN(___,0,0x000),
    DN(E_4,6,0x000),
    DN(___,0,0x000),
    DN(Fs4,6,0x000),
    DN(___,0,0x000),
    DN(As4,6,0x000),
    DN(___,0,0x000),
    DN(Cs5,6,0x000),
    DN(___,0,0x000),
    DN(E_5,6,0x000),
    DN(___,0,0x000),
    DN(Fs5,6,0x000),
    DN(___,0,0x000),
    DN(E_5,6,0x000),
    DN(___,0,0x000),
    DN(Cs5,6,0x000),
    DN(___,0,0x000),
    DN(As4,6,0x000),
    DN(___,0,0x000),
    DN(Fs5,6,0x000),
    DN(___,0,0x000),
    DN(___,0,0x000),
    DN(___,0,0x000),
    DN(Gs5,6,0x000),
    DN(___,0,0x000),
    DN(A_5,6,0x000),
    DN(___,0,0x000),
    DN(As5,6,0x000),
    DN(___,0,0x000),
    DN(F_5,6,0x000),
    DN(___,0,0x000),
    DN(D_5,6,0x000),
    DN(___,0,0x000),
    DN(As4,6,0x000),
    DN(___,0,0x000),
};
static const unsigned char P6_plains[] = {
    DN(E_6,6,0x000),
    DN(___,0,0x000),
    DN(___,0,0x000),
    DN(___,0,0x000),
    DN(___,0,0x000),
    DN(___,0,0x000),
    DN(Fs6,6,0x000),
    DN(___,0,0x000),
    DN(E_6,6,0x000),
    DN(___,0,0x000),
    DN(G_6,6,0x000),
    DN(___,0,0x000),
    DN(E_6,6,0x000),
    DN(___,0,0x000),
    DN(Ds6,6,0x000),
    DN(___,0,0x000),
    DN(E_6,6,0x000),
    DN(___,0,0x000),
    DN(C_6,6,0x000),
    DN(___,0,0x000),
    DN(___,0,0x000),
    DN(___,0,0x000),
    DN(___,0,0x000),
    DN(___,0,0x000),
    DN(E_6,6,0x000),
    DN(___,0,0x000),
    DN(B_5,6,0x000),
    DN(___,0,0x000),
    DN(___,0,0x000),
    DN(___,0,0x000),
    DN(___,0,0x000),
    DN(___,0,0x000),
    DN(G_6,6,0x000),
    DN(___,0,0x000),
    DN(___,0,0x000),
    DN(___,0,0x000),
    DN(As5,6,0x000),
    DN(___,0,0x000),
    DN(B_5,6,0x000),
    DN(___,0,0x000),
    DN(G_5,6,0x000),
    DN(___,0,0x000),
    DN(A_5,6,0x000),
    DN(___,0,0x000),
    DN(Fs5,6,0x000),
    DN(___,0,0x000),
    DN(G_5,6,0x000),
    DN(___,0,0x000),
    DN(B_5,6,0x000),
    DN(___,0,0x000),
    DN(___,0,0x000),
    DN(___,0,0x000),
    DN(Ds6,6,0x000),
    DN(___,0,0x000),
    DN(D_6,6,0x000),
    DN(___,0,0x000),
    DN(Fs6,6,0x000),
    DN(___,0,0x000),
    DN(As6,6,0x000),
    DN(___,0,0x000),
    DN(___,0,0x000),
    DN(___,0,0x000),
    DN(___,0,0x000),
    DN(___,0,0x000),
};
static const unsigned char P8_plains[] = {
    DN(A_4,6,0x000),
    DN(___,0,0x000),
    DN(As4,6,0x000),
    DN(___,0,0x000),
    DN(D_5,6,0x000),
    DN(___,0,0x000),
    DN(F_5,6,0x000),
    DN(___,0,0x000),
    DN(Gs5,6,0x000),
    DN(___,0,0x000),
    DN(As5,6,0x000),
    DN(___,0,0x000),
    DN(Gs5,6,0x000),
    DN(___,0,0x000),
    DN(D_5,6,0x000),
    DN(___,0,0x000),
    DN(Ds4,6,0x000),
    DN(___,0,0x000),
    DN(Fs4,6,0x000),
    DN(___,0,0x000),
    DN(As4,6,0x000),
    DN(___,0,0x000),
    DN(Ds5,6,0x000),
    DN(___,0,0x000),
    DN(Fs5,6,0x000),
    DN(___,0,0x000),
    DN(Gs5,6,0x000),
    DN(___,0,0x000),
    DN(Fs5,6,0x000),
    DN(___,0,0x000),
    DN(Ds5,6,0x000),
    DN(___,0,0x000),
    DN(F_4,6,0x000),
    DN(___,0,0x000),
    DN(A_4,6,0x000),
    DN(___,0,0x000),
    DN(C_5,6,0x000),
    DN(___,0,0x000),
    DN(Ds5,6,0x000),
    DN(___,0,0x000),
    DN(F_5,6,0x000),
    DN(___,0,0x000),
    DN(Fs5,6,0x000),
    DN(___,0,0x000),
    DN(F_5,6,0x000),
    DN(___,0,0x000),
    DN(D_5,6,0x000),
    DN(___,0,0x000),
    DN(As4,6,0x000),
    DN(___,0,0x000),
    DN(B_4,6,0x000),
    DN(___,0,0x000),
    DN(As4,6,0x000),
    DN(___,0,0x000),
    DN(B_4,6,0x000),
    DN(___,0,0x000),
    DN(As4,6,0x000),
    DN(___,0,0x000),
    DN(Fs4,6,0x000),
    DN(___,0,0x000),
    DN(Ds4,6,0x000),
    DN(___,0,0x000),
    DN(D_4,6,0x000),
    DN(___,0,0x000),
};
static const unsigned char P9_plains[] = {
    DN(___,0,0x000),
    DN(___,0,0x000),
    DN(___,0,0x000),
    DN(___,0,0x000),
    DN(___,0,0x000),
    DN(___,0,0x000),
    DN(___,0,0x000),
    DN(___,0,0x000),
    DN(___,0,0x000),
    DN(___,0,0x000),
    DN(___,0,0x000),
    DN(___,0,0x000),
    DN(___,0,0x000),
    DN(___,0,0x000),
    DN(___,0,0x000),
    DN(___,0,0x000),
    DN(___,0,0x000),
    DN(___,0,0x000),
    DN(___,0,0x000),
    DN(___,0,0x000),
    DN(___,0,0x000),
    DN(___,0,0x000),
    DN(___,0,0x000),
    DN(___,0,0x000),
    DN(___,0,0x000),
    DN(___,0,0x000),
    DN(___,0,0x000),
    DN(___,0,0x000),
    DN(___,0,0x000),
    DN(___,0,0x000),
    DN(___,0,0x000),
    DN(___,0,0x000),
    DN(___,0,0x000),
    DN(___,0,0x000),
    DN(___,0,0x000),
    DN(___,0,0x000),
    DN(___,0,0x000),
    DN(___,0,0x000),
    DN(___,0,0x000),
    DN(___,0,0x000),
    DN(___,0,0x000),
    DN(___,0,0x000),
    DN(___,0,0x000),
    DN(___,0,0x000),
    DN(___,0,0x000),
    DN(___,0,0x000),
    DN(___,0,0x000),
    DN(___,0,0x000),
    DN(As5,6,0x000),
    DN(___,0,0x000),
    DN(B_5,6,0x000),
    DN(___,0,0x000),
    DN(As5,6,0x000),
    DN(___,0,0x000),
    DN(B_5,6,0x000),
    DN(___,0,0x000),
    DN(As4,6,0x000),
    DN(___,0,0x000),
    DN(___,0,0x000),
    DN(___,0,0x000),
    DN(___,0,0x000),
    DN(___,0,0x000),
    DN(___,0,0x000),
    DN(___,0,0x000),
};
static const unsigned char P10_plains[] = {
    DN(___,0,0x000),
    DN(___,0,0x000),
    DN(___,0,0x000),
    DN(___,0,0x000),
    DN(Ds6,6,0x000),
    DN(___,0,0x000),
    DN(F_6,6,0x000),
    DN(___,0,0x000),
    DN(Gs6,6,0x000),
    DN(___,0,0x000),
    DN(___,0,0x000),
    DN(___,0,0x000),
    DN(___,0,0x000),
    DN(___,0,0x000),
    DN(___,0,0x000),
    DN(___,0,0x000),
    DN(___,0,0x000),
    DN(___,0,0x000),
    DN(___,0,0x000),
    DN(___,0,0x000),
    DN(___,0,0x000),
    DN(___,0,0x000),
    DN(___,0,0x000),
    DN(___,0,0x000),
    DN(Ds6,6,0x000),
    DN(___,0,0x000),
    DN(F_6,6,0x000),
    DN(___,0,0x000),
    DN(Fs6,6,0x000),
    DN(___,0,0x000),
    DN(___,0,0x000),
    DN(___,0,0x000),
    DN(F_6,6,0x000),
    DN(___,0,0x000),
    DN(___,0,0x000),
    DN(___,0,0x000),
    DN(___,0,0x000),
    DN(___,0,0x000),
    DN(D_6,6,0x000),
    DN(___,0,0x000),
    DN(F_6,6,0x000),
    DN(___,0,0x000),
    DN(Ds6,6,0x000),
    DN(___,0,0x000),
    DN(F_6,6,0x000),
    DN(___,0,0x000),
    DN(Fs6,6,0x000),
    DN(___,0,0x000),
    DN(___,0,0x000),
    DN(___,0,0x000),
    DN(___,0,0x000),
    DN(___,0,0x000),
    DN(___,0,0x000),
    DN(___,0,0x000),
    DN(___,0,0x000),
    DN(___,0,0x000),
    DN(As6,6,0x000),
    DN(___,0,0x000),
    DN(B_6,6,0x000),
    DN(___,0,0x000),
    DN(As6,6,0x000),
    DN(___,0,0x000),
    DN(F_6,6,0x000),
    DN(___,0,0x000),
};
static const unsigned char P12_plains[] = {
    DN(Ds4,6,0x000),
    DN(___,0,0x000),
    DN(Fs4,6,0x000),
    DN(___,0,0x000),
    DN(As4,6,0x000),
    DN(___,0,0x000),
    DN(Ds5,6,0x000),
    DN(___,0,0x000),
    DN(F_5,6,0x000),
    DN(___,0,0x000),
    DN(Ds5,6,0x000),
    DN(___,0,0x000),
    DN(Fs5,6,0x000),
    DN(___,0,0x000),
    DN(Ds5,6,0x000),
    DN(___,0,0x000),
    DN(D_5,6,0x000),
    DN(___,0,0x000),
    DN(___,0,0x000),
    DN(___,0,0x000),
    DN(___,0,0x000),
    DN(___,0,0x000),
    DN(Ds5,6,0x000),
    DN(F_5,6,0x000),
    DN(Ds5,6,0x000),
    DN(___,0,0x000),
    DN(___,0,0x000),
    DN(___,0,0x000),
    DN(A_4,6,0x000),
    DN(___,0,0x000),
    DN(As4,6,0x000),
    DN(___,0,0x000),
    DN(B_4,6,0x000),
    DN(___,0,0x000),
    DN(Ds4,6,0x000),
    DN(___,0,0x000),
    DN(Cs5,6,0x000),
    DN(___,0,0x000),
    DN(B_4,6,0x000),
    DN(___,0,0x000),
    DN(As4,6,0x000),
    DN(___,0,0x000),
    DN(A_4,6,0x000),
    DN(___,0,0x000),
    DN(As4,6,0x000),
    DN(___,0,0x000),
    DN(Ds5,6,0x000),
    DN(___,0,0x000),
    DN(As4,6,0x000),
    DN(___,0,0x000),
    DN(As3,6,0x000),
    DN(___,0,0x000),
    DN(D_4,6,0x000),
    DN(___,0,0x000),
    DN(As4,6,0x000),
    DN(___,0,0x000),
    DN(Ds3,6,0x000),
    DN(___,0,0x000),
    DN(___,0,0x000),
    DN(___,0,0x000),
    DN(G_4,6,0x000),
    DN(___,0,0x000),
    DN(B_4,6,0x000),
    DN(___,0,0x000),
};
static const unsigned char P14_plains[] = {
    DN(Ds6,6,0x000),
    DN(___,0,0x000),
    DN(___,0,0x000),
    DN(___,0,0x000),
    DN(___,0,0x000),
    DN(___,0,0x000),
    DN(___,0,0x000),
    DN(___,0,0x000),
    DN(___,0,0x000),
    DN(___,0,0x000),
    DN(___,0,0x000),
    DN(___,0,0x000),
    DN(___,0,0x000),
    DN(___,0,0x000),
    DN(___,0,0x000),
    DN(___,0,0x000),
    DN(Fs6,6,0x000),
    DN(___,0,0x000),
    DN(___,0,0x000),
    DN(___,0,0x000),
    DN(Gs6,6,0x000),
    DN(___,0,0x000),
    DN(___,0,0x000),
    DN(___,0,0x000),
    DN(D_6,6,0x000),
    DN(___,0,0x000),
    DN(___,0,0x000),
    DN(___,0,0x000),
    DN(As5,6,0x000),
    DN(___,0,0x000),
    DN(___,0,0x000),
    DN(___,0,0x000),
    DN(___,0,0x000),
    DN(___,0,0x000),
    DN(___,0,0x000),
    DN(___,0,0x000),
    DN(___,0,0x000),
    DN(___,0,0x000),
    DN(___,0,0x000),
    DN(___,0,0x000),
    DN(___,0,0x000),
    DN(___,0,0x000),
    DN(___,0,0x000),
    DN(___,0,0x000),
    DN(F_6,6,0x000),
    DN(___,0,0x000),
    DN(___,0,0x000),
    DN(___,0,0x000),
    DN(D_6,6,0x000),
    DN(___,0,0x000),
    DN(As5,6,0x000),
    DN(___,0,0x000),
    DN(Gs6,6,0x000),
    DN(___,0,0x000),
    DN(D_6,6,0x000),
    DN(___,0,0x000),
    DN(Ds5,6,0x000),
    DN(___,0,0x000),
    DN(___,0,0x000),
    DN(___,0,0x000),
    DN(___,0,0x000),
    DN(___,0,0x000),
    DN(___,0,0x000),
    DN(___,0,0x000),
};

static const unsigned char itNoiseSP1_plains[] = {
    DN(0,0,0x000),
    DN(___,0,0x000),
    DN(___,0,0x000),
    DN(___,0,0x000),
    DN(___,0,0x000),
    DN(9,0,0x000),
    DN(___,0,0x000),
    DN(___,0,0x000),
    DN(___,0,0x000),
    DN(___,0,0x000),
    DN(___,0,0x000),
    DN(0,0,0x000),
    DN(___,0,0x000),
    DN(___,0,0x000),
    DN(___,0,0x000),
    DN(___,0,0x000),
    DN(___,0,0x000),
    DN(___,0,0x000),
    DN(___,0,0x000),
    DN(___,0,0x000),
    DN(___,0,0x000),
    DN(___,0,0x000),
    DN(___,0,0x000),
    DN(___,0,0x000),
    DN(___,0,0x000),
    DN(___,0,0x000),
    DN(___,0,0x000),
    DN(___,0,0x000),
    DN(___,0,0x000),
    DN(___,0,0x000),
    DN(___,0,0x000),
    DN(___,1,0x000),
};
static const unsigned char* const order1_plains[] = {P0_plains,P4_plains,P12_plains,P8_plains,P12_plains};
static const unsigned char* const order2_plains[] = {P1_plains,P1_plains,P1_plains,P9_plains,P1_plains};
static const unsigned char* const order3_plains[] = {P2_plains,P6_plains,P14_plains,P10_plains,P14_plains};
static const unsigned char* const order4_plains[] = {P1_plains,P1_plains,P1_plains,P1_plains,P1_plains};

static const hUGEDutyInstr_t duty_instruments_plains[] = {
    {8,0,240,0,128},
    {8,64,240,0,128},
    {8,128,240,0,128},
    {8,192,240,0,128},
    {8,0,241,0,128},
    {8,64,241,0,128},
    {8,128,241,0,128},
    {8,192,241,0,128},
    {8,128,240,0,128},
    {8,128,240,0,128},
    {8,128,240,0,128},
    {8,128,240,0,128},
    {8,128,240,0,128},
    {8,128,240,0,128},
    {8,128,240,0,128},
};
static const hUGEWaveInstr_t wave_instruments_plains[] = {
    {14,32,1,0,192},
    {0,32,1,0,128},
    {0,32,2,0,128},
    {0,32,3,0,128},
    {0,32,4,0,128},
    {132,32,5,0,192},
    {70,32,6,0,192},
    {0,32,7,0,128},
    {0,32,8,0,128},
    {0,32,9,0,128},
    {0,32,10,0,128},
    {0,32,11,0,128},
    {0,32,12,0,128},
    {0,32,13,0,128},
    {134,32,15,0,192},
};
static const hUGENoiseInstr_t noise_instruments_plains[] = {
    {144,itNoiseSP1_plains,194,0,0},
    {240,0,0,0,0},
    {240,0,0,0,0},
    {240,0,0,0,0},
    {240,0,0,0,0},
    {240,0,0,0,0},
    {240,0,0,0,0},
    {240,0,0,0,0},
    {240,0,0,0,0},
    {240,0,0,0,0},
    {240,0,0,0,0},
    {240,0,0,0,0},
    {240,0,0,0,0},
    {240,0,0,0,0},
    {240,0,0,0,0},
};

static const unsigned char waves_plains[] = {
    255,236,202,152,135,102,84,0,18,52,56,170,205,238,239,254,
    4,173,134,88,133,88,134,19,198,102,88,133,88,135,100,33,
    255,236,202,152,135,102,84,0,18,52,56,170,205,238,239,254,
    0,0,0,0,0,0,0,0,0,0,0,0,255,255,255,255,
    0,1,18,35,52,69,86,103,120,137,154,171,188,205,222,239,
    254,220,186,152,118,84,50,16,18,52,86,120,154,188,222,255,
    122,205,219,117,33,19,104,189,220,151,65,1,71,156,221,184,
    15,15,15,15,15,15,15,15,15,15,15,15,15,15,15,15,
    254,252,250,248,246,244,242,240,242,244,246,248,250,252,254,255,
    254,221,204,187,170,153,136,119,138,189,241,36,87,138,189,238,
    132,17,97,237,87,71,90,173,206,163,23,121,221,32,3,71,
    6,179,1,98,53,26,18,160,134,96,117,120,72,68,203,149,
    67,228,66,33,93,212,200,108,204,141,53,37,230,4,70,98,
    56,17,197,72,169,124,235,86,157,50,133,50,11,60,5,29,
    20,200,20,92,56,157,45,213,110,205,144,176,74,124,109,52,
    255,255,254,184,84,49,35,68,69,85,102,119,136,154,188,221,
};

const hUGESong_t plains_bgm = {7, &order_cnt_plains, order1_plains, order2_plains, order3_plains,order4_plains, duty_instruments_plains, wave_instruments_plains, noise_instruments_plains, NULL, waves_plains};
